<?xml version="1.0" encoding="UTF-8" standalone="no"?>
<!-- Svg Vector Icons : http://www.onlinewebfonts.com/icon -->

<svg
   xmlns:dc="http://purl.org/dc/elements/1.1/"
   xmlns:cc="http://creativecommons.org/ns#"
   xmlns:rdf="http://www.w3.org/1999/02/22-rdf-syntax-ns#"
   xmlns:svg="http://www.w3.org/2000/svg"
   xmlns="http://www.w3.org/2000/svg"
   xmlns:xlink="http://www.w3.org/1999/xlink"
   xmlns:sodipodi="http://sodipodi.sourceforge.net/DTD/sodipodi-0.dtd"
   xmlns:inkscape="http://www.inkscape.org/namespaces/inkscape"
   version="1.1"
   x="0px"
   y="0px"
   viewBox="0 0 5000 1000"
   enable-background="new 0 0 1000 1000"
   xml:space="preserve"
   id="svg2"
   inkscape:version="0.92.3 (2405546, 2018-03-11)"
   sodipodi:docname="light grey icon_grad.svg"
   width="5000"
   height="1000"><defs
   id="defs26"><linearGradient
   inkscape:collect="always"
   id="linearGradient834"><stop
     style="stop-color:#5062b2;stop-opacity:1"
     offset="0"
     id="stop830" /><stop
     style="stop-color:#04e9a6;stop-opacity:1"
     offset="1"
     id="stop832" /></linearGradient><linearGradient
   inkscape:collect="always"
   xlink:href="#linearGradient834"
   id="linearGradient836"
   x1="2155.0778"
   y1="479.9955"
   x2="4375.9062"
   y2="479.9955"
   gradientUnits="userSpaceOnUse" />







<linearGradient
   inkscape:collect="always"
   xlink:href="#linearGradient2871"
   id="linearGradient2873"
   x1="-725.29968"
   y1="1198.6858"
   x2="-687.35309"
   y2="1222.1858"
   gradientUnits="userSpaceOnUse" /><linearGradient
   inkscape:collect="always"
   id="linearGradient2871"><stop
     style="stop-color:#ab0000;stop-opacity:1"
     offset="0"
     id="stop2867" /><stop
     style="stop-color:#00009b;stop-opacity:1"
     offset="1"
     id="stop2869" /></linearGradient><linearGradient
   inkscape:collect="always"
   xlink:href="#linearGradient1469"
   id="linearGradient2547"
   gradientUnits="userSpaceOnUse"
   gradientTransform="matrix(-1,0,0,1,588.11369,0)"
   x1="292.95657"
   y1="1605.6097"
   x2="295.15714"
   y2="1605.6097" /><linearGradient
   inkscape:collect="always"
   id="linearGradient1469"><stop
     style="stop-color:#000036;stop-opacity:1"
     offset="0"
     id="stop1465" /><stop
     style="stop-color:#0000f1;stop-opacity:0.87222224"
     offset="1"
     id="stop1467" /></linearGradient><linearGradient
   inkscape:collect="always"
   xlink:href="#linearGradient1477"
   id="linearGradient2549"
   gradientUnits="userSpaceOnUse"
   x1="269.33374"
   y1="1591.3347"
   x2="268.62781"
   y2="1590.0658" /><linearGradient
   inkscape:collect="always"
   id="linearGradient1477"><stop
     style="stop-color:#770000;stop-opacity:1"
     offset="0"
     id="stop1473" /><stop
     style="stop-color:#dd0000;stop-opacity:0.99607843"
     offset="1"
     id="stop1475" /></linearGradient><linearGradient
   inkscape:collect="always"
   xlink:href="#linearGradient1416"
   id="linearGradient2551"
   gradientUnits="userSpaceOnUse"
   x1="322.64273"
   y1="1595.4365"
   x2="323.05481"
   y2="1594.7183" /><linearGradient
   inkscape:collect="always"
   id="linearGradient1416"><stop
     style="stop-color:#00ee00;stop-opacity:1;"
     offset="0"
     id="stop1412" /><stop
     style="stop-color:#00ee00;stop-opacity:0;"
     offset="1"
     id="stop1414" /></linearGradient></defs><sodipodi:namedview
   pagecolor="#ffffff"
   bordercolor="#666666"
   borderopacity="1"
   objecttolerance="10"
   gridtolerance="10"
   guidetolerance="10"
   inkscape:pageopacity="0"
   inkscape:pageshadow="2"
   inkscape:window-width="1366"
   inkscape:window-height="713"
   id="namedview24"
   showgrid="false"
   inkscape:zoom="0.0834386"
   inkscape:cx="2582.548"
   inkscape:cy="513.9968"
   inkscape:window-x="1920"
   inkscape:window-y="73"
   inkscape:window-maximized="1"
   inkscape:current-layer="svg2"
   inkscape:pagecheckerboard="true" /><metadata
   id="metadata4"> Svg Vector Icons : http://www.onlinewebfonts.com/icon <rdf:RDF><cc:Work
     rdf:about=""><dc:format>image/svg+xml</dc:format><dc:type
       rdf:resource="http://purl.org/dc/dcmitype/StillImage" /><dc:title></dc:title></cc:Work></rdf:RDF></metadata>
<g
   id="g1142"><path
     style="fill:#979797;stroke:#000000;stroke-width:0.1;fill-opacity:1"
     inkscape:connector-curvature="0"
     id="path10"
     d="m 82.58,76 c -6.78,3.21 -15.69,10.7 -19.62,16.05 -7.49,9.99 -7.49,13.2 -8.56,288.2 -1.07,308.52 -1.78,295.68 22.12,310.3 10.34,6.42 20.69,6.77 172.63,6.77 116.99,0 161.22,1.07 161.22,3.93 0,10.34 -11.77,73.48 -14.98,79.18 -1.78,3.57 -11.77,11.77 -22.47,18.54 -26.75,17.12 -33.88,27.47 -33.88,48.87 0,13.91 1.78,19.26 8.92,26.03 l 8.56,8.92 h 144.1 c 140.53,0 144.46,-0.36 153.73,-7.49 7.85,-6.06 9.28,-9.99 9.28,-26.04 0,-23.18 -6.78,-33.17 -33.17,-48.15 -27.82,-16.05 -31.03,-21.04 -38.52,-59.92 -3.57,-19.26 -6.42,-37.1 -6.77,-39.59 0,-3.21 34.6,-4.29 160.5,-4.29 177.62,0 175.49,0.36 189.04,-22.47 6.78,-11.06 7.13,-19.98 7.13,-291.41 0,-267.51 -0.36,-280.35 -6.78,-291.05 C 920.44,68.13 946.83,69.55 498.84,69.55 121.1,69.58 94,69.94 82.58,76 Z m 830.7,22.11 c 7.13,7.13 7.13,11.77 7.13,286.06 0,254.31 -0.36,279.28 -6.06,285.34 -5.35,6.06 -23.18,6.42 -415.53,6.42 -404.83,0 -409.46,0 -416.6,-7.13 -7.13,-7.13 -7.13,-11.77 -7.13,-284.27 V 107.39 l 7.85,-8.21 7.49,-8.2 h 408.04 c 403.04,0 407.68,0 414.81,7.13 z M 565.52,705.18 c 0.71,4.63 4.28,23.54 7.13,42.08 7.49,44.23 11.41,49.93 52.43,74.9 10.7,6.42 17.83,13.91 19.26,19.62 5,20.33 10.7,19.62 -142.67,19.62 H 360.43 l -2.14,-8.56 c -2.85,-12.48 2.14,-19.62 27.46,-38.17 26.75,-18.9 31.74,-29.6 40.66,-82.75 l 6.06,-34.6 h 65.63 c 64.93,0.01 65.64,0.01 67.42,7.86 z" /><path
     style="fill:#979797;stroke:#000000;stroke-width:0.1;fill-opacity:1"
     inkscape:connector-curvature="0"
     id="path14"
     d="m 247.72,238.64 c -31.74,13.91 -53.86,49.94 -50.29,82.75 4.99,47.79 42.45,79.54 89.53,75.61 56.71,-4.64 91.31,-67.05 66.34,-118.77 -17.48,-36.02 -69.2,-55.28 -105.58,-39.59 z m 66.7,25.33 c 13.91,8.92 28.18,33.88 28.18,48.51 0,18.19 -7.49,34.95 -21.4,47.44 -16.41,14.98 -26.04,17.83 -49.58,15.69 -64.56,-6.42 -73.83,-96.3 -12.13,-119.13 17.48,-6.42 38.17,-3.57 54.93,7.49 z" /><path
     style="fill:#979797;stroke:#000000;stroke-width:0.1;fill-opacity:1"
     inkscape:connector-curvature="0"
     id="path16"
     d="M 764.55,326.39 C 728.88,344.58 716.4,417.7 746,433.75 c 4.28,2.14 14.27,4.28 21.4,4.64 10.7,0 16.05,-2.14 25.33,-11.06 l 11.77,-11.77 10.34,10.7 c 5.35,6.06 12.13,10.7 14.62,10.7 2.5,0 7.13,1.07 9.99,2.14 6.78,2.5 17.12,-7.85 14.63,-14.62 -1.43,-2.85 -5.71,-5.35 -10.34,-5.35 -19.26,0 -26.04,-25.32 -18.19,-68.48 2.49,-14.98 2.14,-17.12 -5.71,-22.11 -14.99,-10 -38.17,-10.71 -55.29,-2.15 z m 39.95,17.83 c 3.92,6.42 -11.77,52.07 -21.76,63.84 -22.83,27.11 -43.52,-1.07 -28.18,-38.16 8.92,-20.69 18.9,-29.25 34.24,-29.25 7.49,0 14.63,1.79 15.7,3.57 z" /><path
     style="fill:#979797;stroke:#000000;stroke-width:0.1;fill-opacity:1"
     inkscape:connector-curvature="0"
     id="path18"
     d="m 174.96,448.37 c -25.68,17.48 -26.75,21.04 -27.82,95.23 -1.07,57.07 -0.36,67.41 4.28,71.69 4.64,3.57 6.78,3.57 11.06,0 4.28,-3.57 5.35,-15.69 5.35,-67.77 0,-63.13 0,-63.85 9.27,-74.55 l 9.27,-11.06 h 91.66 c 99.51,0 102.72,0.71 110.21,20.33 1.78,5.35 5.71,26.39 7.85,46.72 4.64,39.24 10.7,51.72 26.39,55.64 4.64,1.07 11.77,1.07 16.05,-0.71 12.14,-4.27 110.94,-91.29 110.94,-97.36 0,-4.64 -6.42,-10.34 -12.13,-10.34 -0.36,0 -23.9,19.97 -52.43,44.58 -28.18,24.25 -53.5,44.58 -56,44.58 -6.78,0 -10.7,-12.84 -15.34,-52.79 -4.64,-41.38 -11.41,-55.64 -31.74,-65.63 -11.06,-5.71 -23.9,-6.42 -103.79,-6.42 -88.81,0.01 -91.66,0.37 -103.08,7.86 z" /><path
     style="fill:#979797;stroke:#000000;stroke-width:0.1;fill-opacity:1"
     inkscape:connector-curvature="0"
     id="path20"
     d="m 902.01692,732.51571 c -47.43893,12.94296 -63.9459,45.15924 -60.99646,117.93012 2.06544,49.76386 14.14411,79.67379 41.84574,104.69684 19.44815,17.25728 34.17884,23.29733 59.22844,23.29733 16.20955,0 23.86818,-1.43542 35.65769,-7.19322 28.28827,-13.80582 52.15637,-47.74783 60.11247,-84.56067 4.42,-21.28129 1.768,-86.28639 -4.42,-105.2694 -6.1881,-19.84587 -21.5136,-36.53059 -40.66435,-44.58668 -20.34042,-8.62864 -66.60619,-10.64467 -90.76353,-4.31432 z m 73.95914,15.82186 c 27.99084,7.48353 43.02714,28.19227 45.96834,62.70683 l 1.768,20.70873 h -83.39403 -83.38579 l 1.76802,-20.41843 c 2.94944,-34.80486 16.20954,-53.21531 44.20033,-61.84395 14.73069,-4.32239 58.34444,-5.18525 73.07513,-1.15318 z m 48.62034,101.81795 c 2.652,6.62066 -4.1226,43.14319 -10.8972,58.10219 -12.3761,28.1842 -37.1283,49.7558 -62.47533,54.07012 -25.34703,4.60463 -58.34444,-13.51551 -74.55398,-40.2643 -10.60808,-17.54758 -18.86156,-44.86892 -18.86156,-61.84395 v -14.09614 h 82.51004 c 69.24993,0.008 83.10493,0.58062 84.27803,4.03208 z" /><path
     style="fill:#979797;stroke:#000000;stroke-width:0.1;fill-opacity:1"
     inkscape:connector-curvature="0"
     id="path22"
     d="m 935.01433,771.0059 c -4.12261,4.02401 -4.71746,36.24028 -0.88401,41.99002 1.47059,2.29828 5.00662,3.45145 7.95606,2.8789 5.00662,-0.86286 5.60147,-3.74176 5.60147,-23.87794 0,-18.12015 -0.88401,-23.00702 -4.42004,-23.86989 -2.65202,-0.28224 -6.18804,0.86287 -8.25348,2.87891 z" /><text
     id="text4158"
     y="454.68884"
     x="4374.4741"
     style="font-style:normal;font-weight:normal;font-size:1.20000005px;line-height:0%;font-family:sans-serif;letter-spacing:0px;word-spacing:0px;fill:#000000;fill-opacity:1;stroke:none;stroke-width:0.1px;stroke-linecap:butt;stroke-linejoin:miter;stroke-opacity:1"
     xml:space="preserve"><tspan
       style="font-size:40px;line-height:1.25;stroke-width:0.1px"
       y="454.68884"
       x="4374.4741"
       id="tspan4160"
       sodipodi:role="line"> </tspan></text>
<text
     transform="matrix(0.00660068,-0.99748422,1.0024568,0.00987174,0,0)"
     id="text4162"
     y="4471.9209"
     x="-647.65216"
     style="font-style:normal;font-weight:normal;font-size:1.19999993px;line-height:0%;font-family:sans-serif;letter-spacing:0px;word-spacing:0px;fill:#ff0000;fill-opacity:1;stroke:none;stroke-width:0.1px;stroke-linecap:butt;stroke-linejoin:miter;stroke-opacity:1"
     xml:space="preserve"><tspan
       style="font-size:170.51539612px;line-height:1.25;stroke-width:0.1px"
       y="4471.9209"
       x="-647.65216"
       id="tspan4164"
       sodipodi:role="line">com</tspan></text>
<ellipse
     ry="27.136646"
     rx="30.132854"
     cy="759.05188"
     cx="4435.9038"
     id="path4166"
     style="fill:#979797;fill-opacity:1;stroke:#000000;stroke-width:0.65859067;stroke-opacity:1" /><text
     transform="scale(1.0586744,0.94457749)"
     id="text4194"
     y="455.71594"
     x="422.00644"
     style="font-style:normal;font-weight:normal;font-size:1.20000005px;line-height:0%;font-family:sans-serif;letter-spacing:0px;word-spacing:0px;fill:#979797;fill-opacity:1;stroke:#000000;stroke-width:0.1px;stroke-linecap:butt;stroke-linejoin:miter;stroke-opacity:1;"
     xml:space="preserve"><tspan
       style="font-size:172.76382446px;line-height:1.25;fill:#979797;stroke:#000000;stroke-width:0.1px;fill-opacity:1;"
       y="455.71594"
       x="422.00644"
       id="tspan4196"
       sodipodi:role="line">b+</tspan></text>
<text
     transform="scale(0.96616005,1.0350252)"
     id="text4154"
     y="744.46027"
     x="2134.4312"
     style="font-style:normal;font-weight:normal;line-height:0%;font-family:sans-serif;letter-spacing:0px;word-spacing:0px;fill:url(#linearGradient836);fill-opacity:1;stroke:none;stroke-width:1px;stroke-linecap:butt;stroke-linejoin:miter;stroke-opacity:1"
     xml:space="preserve"><tspan
       style="font-size:768.80603027px;line-height:1.25;fill:url(#linearGradient836);fill-opacity:1"
       y="744.46027"
       x="2134.4312"
       id="tspan4156"
       sodipodi:role="line">tutors</tspan></text>
<text
     transform="scale(0.95806244,1.0437733)"
     id="text4202"
     y="730.39923"
     x="1189.9655"
     style="font-style:normal;font-weight:normal;line-height:0%;font-family:sans-serif;letter-spacing:0px;word-spacing:0px;fill:#979797;fill-opacity:1;stroke:none;stroke-width:1px;stroke-linecap:butt;stroke-linejoin:miter;stroke-opacity:1;"
     xml:space="preserve"><tspan
       style="font-size:703.56750488px;line-height:1.25;fill:#979797;fill-opacity:1;"
       y="730.39923"
       x="1189.9655"
       id="tspan4204"
       sodipodi:role="line">24</tspan></text>
</g>
<g
   transform="translate(1986.1989,-1491.3516)"
   inkscape:export-ydpi="100"
   inkscape:export-xdpi="100"
   inkscape:export-filename="/home/abhishek/Desktop/xz2.png"
   id="g1627"><rect
     y="1150.6398"
     x="-764.08868"
     height="156"
     width="149"
     id="rect1569"
     style="opacity:1;fill:#979797;fill-opacity:0.97222218;stroke:none;stroke-width:1;stroke-linecap:round;stroke-linejoin:round;stroke-miterlimit:4;stroke-dasharray:none;stroke-dashoffset:0;stroke-opacity:0.60392157;paint-order:fill markers stroke" /><path
     style="opacity:0.603;fill:#969696;fill-opacity:1;stroke:#000000;stroke-width:1;stroke-linecap:round;stroke-linejoin:round;stroke-miterlimit:4;stroke-dasharray:none;stroke-dashoffset:0;stroke-opacity:1;paint-order:fill markers stroke"
     d="m -642.6031,1198.0889 -42.69659,-24.568 0.14543,49.1989 42.55116,24.6308 z"
     id="path1571"
     inkscape:connector-curvature="0"
     sodipodi:nodetypes="ccccc" /><path
     sodipodi:nodetypes="ccccc"
     inkscape:connector-curvature="0"
     id="path1573"
     d="m -685.6031,1222.5326 -42.69659,24.568 0.14543,-49.199 42.55116,-24.6307 z"
     style="opacity:1;fill:url(#linearGradient2873);fill-opacity:1;stroke:#000000;stroke-width:1;stroke-linecap:round;stroke-linejoin:round;stroke-miterlimit:4;stroke-dasharray:none;stroke-dashoffset:0;stroke-opacity:1;paint-order:fill markers stroke" /><path
     sodipodi:nodetypes="ccccc"
     inkscape:connector-curvature="0"
     id="path1575"
     d="m -728.58715,1247.3573 42.8322,-24.6079 42.8774,24.6876 -40.49763,25.292 z"
     style="opacity:1;fill:#979797;fill-opacity:0.60392157;stroke:#000000;stroke-width:1;stroke-linecap:round;stroke-linejoin:round;stroke-miterlimit:4;stroke-dasharray:none;stroke-dashoffset:0;stroke-opacity:0.60392157;paint-order:fill markers stroke" /><g
     id="g1625"
     transform="translate(-979.69547,-403.23307)"><path
       sodipodi:nodetypes="cc"
       style="fill:none;stroke:url(#linearGradient2547);stroke-width:2;stroke-linecap:round;stroke-linejoin:miter;stroke-miterlimit:4;stroke-dasharray:none;stroke-opacity:1"
       d="m 294.15697,1577.8477 -0.20025,55.524"
       id="path1577"
       inkscape:connector-curvature="0"
       inkscape:transform-center-x="0.200816"
       inkscape:transform-center-y="-32.254242" /><g
       id="g1593"
       inkscape:transform-center-x="26.113081"
       inkscape:transform-center-y="14.745293"
       transform="rotate(-1.0881795,293.99161,1576.9642)"><path
         style="fill:none;stroke:url(#linearGradient2549);stroke-width:2;stroke-linecap:round;stroke-linejoin:miter;stroke-miterlimit:4;stroke-dasharray:none;stroke-opacity:1"
         d="m 293.6804,1577.3862 -44.36126,23.7279"
         id="path1579"
         inkscape:connector-curvature="0"
         inkscape:transform-center-x="28.700674"
         inkscape:transform-center-y="14.719058"
         sodipodi:nodetypes="cc" /><g
         id="g1591"><path
           style="opacity:1;fill:#dd0000;fill-opacity:0.99607843;stroke:none;stroke-width:0.08109292;stroke-linecap:round;stroke-linejoin:round;stroke-miterlimit:4;stroke-dasharray:none;stroke-dashoffset:0;stroke-opacity:1;paint-order:fill markers stroke"
           inkscape:transform-center-x="-0.54881814"
           d="m 256.67131,1603.0252 -6.38942,0.5356 -8.74164,0.7255 4.43049,-4.6315 6.07021,-6.3354 -3.46387,7.336 z"
           id="path1581"
           inkscape:connector-curvature="0"
           sodipodi:nodetypes="ccccccc"
           inkscape:transform-center-y="-1.7682368" /><path
           style="fill:#dd0000;fill-opacity:0.99607843;stroke:none;stroke-width:1px;stroke-linecap:butt;stroke-linejoin:miter;stroke-opacity:1"
           d="m 256.52508,1602.9828 0.70711,0.7845 -2.70689,-0.6077 z"
           id="path1583"
           inkscape:connector-curvature="0" /><path
           style="fill:#dd0000;fill-opacity:0.99607843;stroke:none;stroke-width:1px;stroke-linecap:butt;stroke-linejoin:miter;stroke-opacity:1"
           d="m 250.51467,1595.5471 1.50261,-2.1655 0.64081,0.7734 -2.36439,2.7843 z"
           id="path1585"
           inkscape:connector-curvature="0" /><path
           style="fill:#dd0000;fill-opacity:0.99607843;stroke:none;stroke-width:1px;stroke-linecap:butt;stroke-linejoin:miter;stroke-opacity:1"
           d="m 241.5764,1604.2644 0.65187,0.7845 1.82301,-1.1933 z"
           id="path1587"
           inkscape:connector-curvature="0" /><path
           inkscape:transform-center-y="-1.7682368"
           sodipodi:nodetypes="ccccccc"
           inkscape:connector-curvature="0"
           id="path1589"
           d="m 257.29631,1603.7752 -6.38942,0.5356 -8.74164,0.7255 4.43049,-4.6315 6.07021,-6.3354 -3.46387,7.336 z"
           inkscape:transform-center-x="-0.54881814"
           style="opacity:1;fill:#aa0000;fill-opacity:1;stroke:none;stroke-width:0.08109292;stroke-linecap:round;stroke-linejoin:round;stroke-miterlimit:4;stroke-dasharray:none;stroke-dashoffset:0;stroke-opacity:1;paint-order:fill markers stroke" /></g></g><g
       id="g1611"
       transform="translate(-6.125,-4.375)"><g
         id="g1599"><path
           style="fill:none;stroke:#008000;stroke-width:2;stroke-linecap:round;stroke-linejoin:miter;stroke-miterlimit:4;stroke-dasharray:none;stroke-opacity:1"
           d="m 300.28461,1581.7405 45.8682,25.8764"
           id="path1595"
           inkscape:connector-curvature="0"
           inkscape:transform-center-x="-28.371454"
           inkscape:transform-center-y="15.344058"
           sodipodi:nodetypes="cc" /><path
           sodipodi:nodetypes="cc"
           inkscape:transform-center-y="15.268858"
           inkscape:transform-center-x="-28.232439"
           inkscape:connector-curvature="0"
           id="path1597"
           d="m 300.32207,1581.7927 45.64345,25.7496"
           style="fill:#4fff4f;fill-opacity:1;stroke:url(#linearGradient2551);stroke-width:1.99020016;stroke-linecap:round;stroke-linejoin:miter;stroke-miterlimit:4;stroke-dasharray:none;stroke-opacity:0.76666667" /></g><g
         transform="translate(-19.214502,19.758308)"
         id="g1609"><path
           style="opacity:1;fill:#008000;fill-opacity:1;stroke:none;stroke-width:0.08109292;stroke-linecap:round;stroke-linejoin:round;stroke-miterlimit:4;stroke-dasharray:none;stroke-dashoffset:0;stroke-opacity:1;paint-order:fill markers stroke"
           inkscape:transform-center-x="0.99261744"
           d="m 363.80858,1580.9055 4.00095,5.0103 5.4678,6.859 -6.31376,-1.1033 -8.64186,-1.5175 8.02262,-1.2047 z"
           id="path1601"
           inkscape:connector-curvature="0"
           sodipodi:nodetypes="ccccccc"
           inkscape:transform-center-y="-2.1812141" /><path
           style="fill:#008000;fill-opacity:1;stroke:none;stroke-width:1px;stroke-linecap:butt;stroke-linejoin:miter;stroke-opacity:1"
           d="m 363.81285,1580.9376 0.40055,-1.0254 2.00276,2.5315 -1.6663,0.7851 z"
           id="path1603"
           inkscape:connector-curvature="0" /><path
           inkscape:transform-center-y="-2.1812141"
           sodipodi:nodetypes="ccccccc"
           inkscape:connector-curvature="0"
           id="path1605"
           d="m 364.19311,1579.8801 4.00095,5.0103 5.4678,6.859 -6.31376,-1.1033 -8.64186,-1.5175 8.02262,-1.2047 z"
           inkscape:transform-center-x="0.99261744"
           style="opacity:1;fill:#00ae00;fill-opacity:1;stroke:none;stroke-width:0.08109292;stroke-linecap:round;stroke-linejoin:round;stroke-miterlimit:4;stroke-dasharray:none;stroke-dashoffset:0;stroke-opacity:1;paint-order:fill markers stroke" /><path
           style="fill:#008000;fill-opacity:1;stroke:none;stroke-width:1px;stroke-linecap:butt;stroke-linejoin:miter;stroke-opacity:1"
           d="m 358.4139,1590.1813 0.43051,-1.0876 14.7281,2.6057 -0.40786,1.0876 z"
           id="path1607"
           inkscape:connector-curvature="0" /></g></g><g
       id="g1623"
       transform="translate(0.17678,-4.5961941)"><path
         inkscape:transform-center-y="-0.56613519"
         sodipodi:nodetypes="ccccccc"
         inkscape:connector-curvature="0"
         id="path1613"
         d="m 287.79318,1632.7436 2.59395,5.8637 3.55527,8.0189 1.93973,-6.1089 2.64848,-8.3648 -4.77634,6.5575 z"
         inkscape:transform-center-x="-0.5476181"
         style="opacity:1;fill:#0000d9;fill-opacity:0.89019608;stroke:none;stroke-width:0.08109292;stroke-linecap:round;stroke-linejoin:round;stroke-miterlimit:4;stroke-dasharray:none;stroke-dashoffset:0;stroke-opacity:1;paint-order:fill markers stroke" /><path
         inkscape:connector-curvature="0"
         id="path1615"
         d="m 289.63073,1634.9079 -1.83805,-2.1511 0.66276,0.011 z"
         style="fill:#0000d9;fill-opacity:0.89019608;stroke:none;stroke-width:1px;stroke-linecap:butt;stroke-linejoin:miter;stroke-opacity:1" /><path
         inkscape:connector-curvature="0"
         id="path1617"
         d="m 293.8142,1645.7628 0.13111,0.8466 0.63672,0.01 0.0937,-1.0547 z"
         style="fill:#0000d9;fill-opacity:0.89019608;stroke:none;stroke-width:1px;stroke-linecap:butt;stroke-linejoin:miter;stroke-opacity:1" /><path
         style="opacity:1;fill:#000080;fill-opacity:1;stroke:none;stroke-width:0.08109292;stroke-linecap:round;stroke-linejoin:round;stroke-miterlimit:4;stroke-dasharray:none;stroke-dashoffset:0;stroke-opacity:1;paint-order:fill markers stroke"
         inkscape:transform-center-x="-0.5476181"
         d="m 288.43406,1632.7436 2.59395,5.8637 3.55527,8.0189 1.93973,-6.1089 2.64848,-8.3648 -4.77634,6.5575 z"
         id="path1619"
         inkscape:connector-curvature="0"
         sodipodi:nodetypes="ccccccc"
         inkscape:transform-center-y="-0.56613519" /><path
         sodipodi:nodetypes="cccc"
         style="fill:#0000d9;fill-opacity:0.89019608;stroke:none;stroke-width:1px;stroke-linecap:butt;stroke-linejoin:miter;stroke-opacity:1"
         d="m 297.53692,1634.4984 1.62175,-2.3193 -0.66276,0.011 z"
         id="path1621"
         inkscape:connector-curvature="0" /></g></g></g></svg>