<svg height="480pt" viewBox="-72 0 480 480" width="480pt" xmlns="http://www.w3.org/2000/svg"><path d="m328 240v216c-.027344 8.824219-7.175781 15.972656-16 16h-272v-464h32v232l32-16 32 16v-232h176c8.824219.027344 15.972656 7.175781 16 16v104l-80.71875 7.359375c-4.121094.339844-7.289062 3.785156-7.28125 7.921875v16.71875c13.253906 0 24 10.746094 24 24s-10.746094 24-24 24v16.71875c-.007812 4.136719 3.160156 7.582031 7.28125 7.921875zm-48 176v-120c0-4.417969-3.582031-8-8-8h-192c-4.417969 0-8 3.582031-8 8v120c0 4.417969 3.582031 8 8 8h192c4.417969 0 8-3.582031 8-8zm0 0" fill="#b39a7c"/><path d="m328 128v112l-80.71875-7.359375c-4.121094-.339844-7.289062-3.785156-7.28125-7.921875v-16.71875c13.253906 0 24-10.746094 24-24s-10.746094-24-24-24v-16.71875c-.007812-4.136719 3.160156-7.582031 7.28125-7.921875zm0 0" fill="#806749"/><path d="m80 288h192c4.417969 0 8 3.582031 8 8v120c0 4.417969-3.582031 8-8 8h-192c-4.417969 0-8-3.582031-8-8v-120c0-4.417969 3.582031-8 8-8zm0 0" fill="#00d7df"/><path d="m104 8h-32v232l32-16 32 16v-232zm0 0" fill="#d80027"/><path d="m40 448v24h-32v-464h32zm0 0" fill="#806749"/><path d="m312 0h-304c-4.417969 0-8 3.582031-8 8v464c0 4.417969 3.582031 8 8 8h304c13.253906 0 24-10.746094 24-24v-432c0-13.253906-10.746094-24-24-24zm-184 16v211.054688l-20.425781-10.214844c-2.25-1.125-4.898438-1.125-7.148438 0l-20.425781 10.214844v-211.054688zm184 448h-264v-16c0-4.417969-3.582031-8-8-8s-8 3.582031-8 8v16h-16v-448h16v46.800781c0 4.417969 3.582031 8 8 8s8-3.582031 8-8v-46.800781h16v224c-.015625 2.78125 1.414062 5.367188 3.773438 6.835938 2.363281 1.46875 5.316406 1.605468 7.800781.363281l28.425781-14.253907 28.425781 14.253907c2.484375 1.242187 5.4375 1.105469 7.800781-.363281 2.359376-1.46875 3.789063-4.054688 3.773438-6.835938v-224h168c4.417969 0 8 3.582031 8 8v96.695312l-73.457031 6.671876c-8.253907.722656-14.578125 7.648437-14.542969 15.9375v16.695312c0 4.417969 3.582031 8 8 8 8.835938 0 16 7.164062 16 16s-7.164062 16-16 16c-4.417969 0-8 3.582031-8 8v16.695312c-.035156 8.289063 6.289062 15.214844 14.542969 15.9375l73.457031 6.671876v208.695312c0 4.417969-3.582031 8-8 8zm8-232.761719-72-6.542969v-9.703124c14.144531-3.636719 24.03125-16.386719 24.03125-30.992188s-9.886719-27.355469-24.03125-30.992188v-9.695312l72-6.550781zm0 0"/><path d="m48 109.039062c0 4.417969-3.582031 8-8 8s-8-3.582031-8-8c0-4.417968 3.582031-8 8-8s8 3.582032 8 8zm0 0"/><path d="m40 285.921875c-4.417969 0-8 3.578125-8 8v77.039063c0 4.417968 3.582031 8 8 8s8-3.582032 8-8v-77.039063c0-4.421875-3.582031-8-8-8zm0 0"/><path d="m48 417.199219c0 4.417969-3.582031 8-8 8s-8-3.582031-8-8 3.582031-8 8-8 8 3.582031 8 8zm0 0"/><path d="m48 263.121094c0 4.417968-3.582031 8-8 8s-8-3.582032-8-8c0-4.417969 3.582031-8 8-8s8 3.582031 8 8zm0 0"/><path d="m40 131.839844c-4.417969 0-8 3.582031-8 8v77.039062c0 4.417969 3.582031 8 8 8s8-3.582031 8-8v-77.039062c0-4.417969-3.582031-8-8-8zm0 0"/><path d="m296 216c4.417969 0 8-3.582031 8-8v-48c0-4.417969-3.582031-8-8-8s-8 3.582031-8 8v48c0 4.417969 3.582031 8 8 8zm0 0"/><path d="m104 160c4.417969 0 8-3.582031 8-8v-120c0-4.417969-3.582031-8-8-8s-8 3.582031-8 8v120c0 4.417969 3.582031 8 8 8zm0 0"/><path d="m104 208c4.417969 0 8-3.582031 8-8v-24c0-4.417969-3.582031-8-8-8s-8 3.582031-8 8v24c0 4.417969 3.582031 8 8 8zm0 0"/><path d="m272 280h-192c-8.835938 0-16 7.164062-16 16v120c0 8.835938 7.164062 16 16 16h192c8.835938 0 16-7.164062 16-16v-120c0-8.835938-7.164062-16-16-16zm-192 136v-120h192v120zm0 0"/></svg>