<?xml version="1.0" encoding="UTF-8" standalone="no"?>
<!-- Created with Inkscape (http://www.inkscape.org/) -->
<svg id="svg4190" xmlns:rdf="http://www.w3.org/1999/02/22-rdf-syntax-ns#" xmlns="http://www.w3.org/2000/svg" height="96.5" viewBox="0 0 139.5 96.5" width="139.5" version="1.1" xmlns:cc="http://creativecommons.org/ns#" xmlns:dc="http://purl.org/dc/elements/1.1/">
 <metadata id="metadata4196">
  <rdf:RDF>
   <cc:Work rdf:about="">
    <dc:format>image/svg+xml</dc:format>
    <dc:type rdf:resource="http://purl.org/dc/dcmitype/StillImage"/>
    <dc:title/>
   </cc:Work>
  </rdf:RDF>
 </metadata>
 <g id="g4200" transform="matrix(.66194 -.0074621 -.0053338 .65333 -10.701 -.72895)">
  <path id="path4206" fill="#a37988" d="m21.233 147.19c-0.0094-0.85938-0.33239-2.9688-0.71778-4.6875-0.67629-3.0161-0.63214-3.0405 1.2671-0.69859 1.7248 2.1268 1.9678 2.1654 1.9678 0.3125 0-2.4595 1.9986-2.8362 2.9257-0.55141 0.4788 1.18 0.98905 1.1035 2.0844-0.3125 1.1525-1.4898 1.2977-0.99499 0.70714 2.4088-0.91476 5.2723-1.7265 6.186-3.3803 3.805-0.96648-1.3915-1.4314-1.4587-1.9112-0.2763-0.3487 0.85937-1.1496 1.5625-1.7798 1.5625-0.63021 0-1.1535-0.70313-1.1629-1.5625zm15.805-1.25c-0.41455-1.5469-0.75279-3.6562-0.75165-4.6875 0.0019-1.6667 0.14941-1.6667 1.3281 0 0.99788 1.411 1.4829 1.4884 1.96 0.3125 0.92707-2.2848 2.9257-1.9081 2.9257 0.55141 0 1.8433 0.23492 1.8033 1.8352-0.3125 2.1745-2.875 2.4556-0.88077 0.57137 4.0547-1.2957 3.394-1.4066 3.4327-3.125 1.0925-1.55-2.11-1.782-2.15-1.782-0.31 0 3.0786-2.0814 2.5877-2.9621-0.69859zm16.25 0c-0.41455-1.5469-0.75279-3.6562-0.75165-4.6875 0.0019-1.6667 0.14941-1.6667 1.3281 0 0.99788 1.411 1.4829 1.4884 1.96 0.3125 0.92707-2.2848 2.9257-1.9081 2.9257 0.55141 0 1.8433 0.23492 1.8033 1.8352-0.3125 2.1745-2.875 2.4556-0.88077 0.57137 4.0547-1.2957 3.394-1.4066 3.4327-3.125 1.0925-1.55-2.1109-1.7816-2.1516-1.7816-0.3125 0 3.0786-2.0814 2.5877-2.9621-0.69859zm14.212 1.49c0-0.72807 0.5625-0.97612 1.25-0.55122s1.25 1.0206 1.25 1.3238c0 0.30318-0.5625 0.55123-1.25 0.55123s-1.25-0.5957-1.25-1.3238zm8.75-3.0512c0-3.5417 0.47619-4.375 2.5-4.375s2.5 0.83334 2.5 4.375-0.47619 4.375-2.5 4.375-2.5-0.83334-2.5-4.375zm3.75 1.87c0-0.6875-0.5625-1.25-1.25-1.25s-1.25 0.5625-1.25 1.25 0.5625 1.25 1.25 1.25 1.25-0.5625 1.25-1.25zm-0.625-3.75c0.4249-0.6875 0.17684-1.25-0.55123-1.25s-1.3238 0.5625-1.3238 1.25 0.24805 1.25 0.55123 1.25 0.89887-0.5625 1.3238-1.25zm9.4996 2.1875c-0.13766-5.1788 1.6844-6.268 3.1367-1.875l0.92978 2.8125 0.90486-3.125c0.78443-2.7091 0.92144-2.5011 1.0295 1.5625 0.13766 5.1788-1.6844 6.268-3.1367 1.875l-0.92978-2.8125-0.90486 3.125c-0.78443 2.7091-0.92144 2.5011-1.0295-1.5625zm13.941-0.3125c0.0139-2.75 0.26986-3.7278 0.56885-2.1729s0.28764 3.8049-0.0252 5c-0.31286 1.1951-0.55749-0.0771-0.54362-2.8271zm17.5 0c0.0139-2.75 0.26986-3.7278 0.56885-2.1729s0.28764 3.8049-0.0252 5c-0.31286 1.1951-0.55749-0.0771-0.54362-2.8271zm8.5594 0.3125c-0.13766-5.1788 1.6844-6.268 3.1367-1.875l0.92977 2.8125 0.90487-3.125c0.78444-2.7091 0.92145-2.5011 1.0295 1.5625 0.13766 5.1788-1.6844 6.268-3.1367 1.875l-0.92977-2.8125-0.90487 3.125c-0.78443 2.7091-0.92145 2.5011-1.0295-1.5625zm13.62-0.31c0-4.2164 0.24574-4.5128 3.4375-4.1455 2.8982 0.33348 3.4375 0.98384 3.4375 4.1455s-0.53929 3.812-3.4375 4.1455c-3.1918 0.36725-3.4375 0.0709-3.4375-4.1455zm5.3367 1.5625c0.81167-2.3269-0.36945-4.6875-2.3454-4.6875-1.024 0-1.7413 1.2872-1.7413 3.125 0 3.2464 3.0875 4.4269 4.0867 1.5625zm8.7285-1.5625c0.0139-2.75 0.26987-3.7278 0.56885-2.1729 0.29899 1.5549 0.28764 3.8049-0.0252 5-0.31286 1.1951-0.55749-0.0771-0.54362-2.8271zm8.43 4.08c0-1.9 2.91-8.46 3.75-8.46 1.2728 0 4.0013 7.6653 3.0627 8.604-0.38424 0.38422-1.1877-0.0928-1.7854-1.0598-0.89954-1.4555-1.4262-1.4767-3.057-0.12325-1.0837 0.89937-1.9703 1.369-1.9703 1.0437zm13.12-0.96c0.4249-0.6875 1.0206-1.25 1.3238-1.25 0.30318 0 0.55123 0.5625 0.55123 1.25s-0.5957 1.25-1.3238 1.25c-0.72807 0-0.97612-0.5625-0.55122-1.25zm8.4402-3.125c0.0139-2.75 0.26987-3.7278 0.56886-2.1729 0.29898 1.5549 0.28763 3.8049-0.0252 5-0.31287 1.1951-0.5575-0.0771-0.54363-2.8271zm8.5594 0.3125c-0.13766-5.1788 1.6844-6.268 3.1367-1.875l0.92977 2.8125 0.90487-3.125c0.78444-2.7091 0.92145-2.5011 1.0295 1.5625 0.13766 5.1788-1.6844 6.268-3.1367 1.875l-0.92977-2.8125-0.90487 3.125c-0.78444 2.7091-0.92145 2.5011-1.0295-1.5625zm-84.109 0.70861c0.90234-0.36109 1.9805-0.31668 2.3958 0.0986 0.41536 0.41537-0.32292 0.7108-1.6406 0.65652-1.4562-0.06-1.7524-0.35617-0.7552-0.7552zm-91.01-44.15v-3.75l33.438 0.0278 33.438 0.0278-3.125 2.4595c-5.3596 4.2182-11.076 4.9708-37.812 4.978h-25.939v-3.75zm78.75 0c0-3.4524 0.34722-3.75 4.375-3.75s4.375 0.29762 4.375 3.75-0.34722 3.75-4.375 3.75-4.375-0.29762-4.375-3.75zm57.539 0.0543-2.7089-3.8043h11.418 11.418l-0.39552 3.4375c-0.38232 3.3226-0.67335 3.4498-8.7092 3.8043-8.0139 0.35357-8.4114 0.22961-11.023-3.4375zm28.71 0.01v-3.81h8.833 8.833l-0.39553 3.4375c-0.383 3.3286-0.66282 3.4492-8.833 3.8071l-8.4375 0.36961v-3.8071zm-165-11.935c0-3.0357 0.25-3.125 8.75-3.125s8.75 0.08929 8.75 3.125-0.25 3.125-8.75 3.125-8.75-0.08929-8.75-3.125zm53.379 0.03928c2.0046-2.7542 3.1666-3.0899 10.817-3.125 7.3116-0.03351 8.4597 0.25129 7.8125 1.938-0.418 1.088-0.759 2.494-0.759 3.125 0 0.632-4.526 1.148-10.058 1.148h-10.058l2.2459-3.0857zm25.371-0.039c0-2.7381 0.54167-3.125 4.375-3.125s4.375 0.3869 4.375 3.125-0.54167 3.125-4.375 3.125-4.375-0.3869-4.375-3.125zm50.348 1.5625c-3.57-4.615-3.38-4.688 12.08-4.688h15.074v3.125 3.125h-12.972c-8.8997 0-13.351-0.49051-14.18-1.5625zm35.9-1.563c0-3.0357 0.25-3.125 8.75-3.125s8.75 0.08929 8.75 3.125-0.25 3.125-8.75 3.125-8.75-0.08929-8.75-3.125zm-165-11.307c0-3.1317 0.13366-3.1763 8.4375-2.8125 7.6665 0.33584 8.474 0.62661 8.8369 3.1821 0.38192 2.6891 0.01175 2.8125-8.4375 2.8125-8.634 0-8.836-0.073-8.836-3.182zm56.25 0.057c0-3.0128 0.29167-3.125 8.125-3.125 4.4688 0 8.125 0.5165 8.125 1.1478 0 0.63127 0.34143 2.0375 0.75874 3.125 0.648 1.688-0.538 1.977-8.125 1.977-8.643 0-8.884-0.085-8.884-3.125zm22.5 0c0-2.7381 0.54167-3.125 4.375-3.125s4.375 0.3869 4.375 3.125-0.54167 3.125-4.375 3.125-4.375-0.3869-4.375-3.125zm41.551 0.64196c-0.85-1.366-1.55-2.772-1.55-3.125s5.31-0.642 11.8-0.642c10.781 0 11.973 0.24079 13.75 2.7781l1.9459 2.7781v-2.8536c0-2.5331 0.52643-2.81 4.6875-2.4656 3.7653 0.31163 4.7661 0.9413 5.0869 3.2005 0.39771 2.8003 0.32468 2.8125-16.887 2.8125-15.893 0-17.411-0.20011-18.837-2.483zm44.7-0.699c0-3.1317 0.13365-3.1763 8.4375-2.8125 7.6665 0.33584 8.474 0.62661 8.8369 3.1821 0.38191 2.6891 0.0112 2.8125-8.4375 2.8125-8.64 0-8.84-0.073-8.84-3.182zm-165-10.568v-3.8642l8.4375 0.36961c8.0681 0.35343 8.4375 0.50643 8.4375 3.4946s-0.3694 3.1412-8.4375 3.4946l-8.438 0.37v-3.864zm52.718 0.85694c-1.495-1.591-2.718-3.279-2.718-3.75s3.569-0.857 7.931-0.857c6.0962 0 8.4099 0.5289 10 2.2859 3.6809 4.0674 2.5344 5.2141-5.2134 5.2141-5.9957 0-7.7622-0.51107-10-2.8931zm26.032-0.936c0-3.5671 0.27803-3.8024 4.0625-3.4375 3.3851 0.32638 4.1284 0.96488 4.458 3.8292 0.36605 3.1814 0.0634 3.4375-4.0625 3.4375-4.1405 0-4.458-0.27272-4.458-3.8292zm34.446 1.0511c-1.0702-1.528-1.9459-3.2155-1.9459-3.75 0-0.53453 4.9644-0.97187 11.032-0.97187 9.9155 0 11.307 0.29281 13.75 2.8931 1.4948 1.5912 2.7179 3.2787 2.7179 3.75 0 0.47132-5.3118 0.85694-11.804 0.85694-10.781 0-11.973-0.24079-13.75-2.7781zm33.276-0.5785c0.35663-3.1108 0.9101-3.5184 4.7783-3.5184 3.8333 0 4.375 0.3869 4.375 3.125 0 2.7197-0.61968 3.176-4.7783 3.5184-4.5778 0.37686-4.7614 0.24571-4.375-3.125zm18.52-0.394v-3.8642l8.4375 0.36961c8.0681 0.35343 8.4375 0.50643 8.4375 3.4946s-0.3694 3.1412-8.4375 3.4946l-8.44 0.37v-3.864zm-165-10.625v-3.125l28.438 0.044c25.289 0.04 28.091 0.242 25.312 1.831l-3.125 1.7864 3.125 0.06344c1.7188 0.03489 3.9688 0.60871 5 1.2752 1.2391 0.8008-8.4047 1.2182-28.438 1.2309l-30.312 0.019v-3.125zm78.75 0c0-2.7381 0.54167-3.125 4.375-3.125s4.375 0.3869 4.375 3.125-0.54167 3.125-4.375 3.125-4.375-0.3869-4.375-3.125zm26.551 0.64196c-0.85288-1.3657-1.5507-2.7719-1.5507-3.125 0-0.35308 5.2791-0.64196 11.731-0.64196 11.134 0 11.835 0.1591 13.779 3.125l2.05 3.125h-12.23c-10.847 0-12.403-0.28055-13.779-2.483zm40.95-0.567c0-2.9096 0.46222-3.2005 5.0869-3.2005 4.5604 0 5.0456 0.29114 4.6875 2.8125-0.32085 2.2592-1.3217 2.8888-5.0869 3.2005-4.2972 0.35565-4.6875 0.12144-4.6875-2.8125zm18.75-0.075c0-3.0357 0.25-3.125 8.75-3.125s8.75 0.08929 8.75 3.125-0.25 3.125-8.75 3.125-8.75-0.08929-8.75-3.125zm-165-11.25c0-3.0357 0.25-3.125 8.75-3.125s8.75 0.08929 8.75 3.125-0.25 3.125-8.75 3.125-8.75-0.08929-8.75-3.125zm46.25 0c2.5314-2.6946 4.0249-3.125 10.843-3.125 8.4267 0 8.6079 0.10498 6.6131 3.8322-1.106 2.067-2.681 2.418-10.843 2.418h-9.5489l2.936-3.125zm32.5 0c0-2.7381 0.54167-3.125 4.375-3.125s4.375 0.3869 4.375 3.125-0.54167 3.125-4.375 3.125-4.375-0.3869-4.375-3.125zm18.24 0-2.0476-3.125h12.079c10.037 0 12.359 0.36966 13.739 2.1875 0.91331 1.2031 1.6784 2.6094 1.7003 3.125 0.0219 0.51562-5.2393 0.9375-11.691 0.9375-11.134 0-11.835-0.1591-13.779-3.125zm49.26 0c0-2.8125 0.5-3.125 5-3.125s5 0.3125 5 3.125-0.5 3.125-5 3.125-5-0.3125-5-3.125zm18.75 0c0-3.0357 0.25-3.125 8.75-3.125s8.75 0.08929 8.75 3.125-0.25 3.125-8.75 3.125-8.75-0.08929-8.75-3.125zm-165-11.25c0-3.0357 0.25-3.125 8.75-3.125s8.75 0.08929 8.75 3.125-0.25 3.125-8.75 3.125-8.75-0.08929-8.75-3.125zm50.944-0.0022c0.5946-3.1105 0.91065-3.2199 8.2744-2.8659 6.7001 0.32218 7.6562 0.68032 7.6562 2.8681 0 2.2114-0.9553 2.5422-8.2744 2.8659l-8.2744 0.36589 0.61822-3.234zm27.806 0.002v-3.125h16.056c13.968 0 16.325 0.29737 18.125 2.2859 1.1378 1.2573 2.0687 2.6635 2.0687 3.125 0 0.46149-5.3118 0.83907-11.804 0.83907-10.781 0-11.973-0.24079-13.75-2.7781l-1.95-2.778v2.7781c0 2.3417-0.68733 2.7781-4.375 2.7781-3.8333 0-4.375-0.3869-4.375-3.125zm67.5-0.07546c0-2.9339 0.39035-3.1681 4.6875-2.8125 3.7653 0.31163 4.7661 0.9413 5.0869 3.2005 0.35808 2.5214-0.12714 2.8125-4.6875 2.8125-4.63 0-5.09-0.291-5.09-3.2zm18.75 0.075c0-3.0357 0.25-3.125 8.75-3.125s8.75 0.08929 8.75 3.125-0.25 3.125-8.75 3.125-8.75-0.08929-8.75-3.125zm-164.11-7.655c-0.487-0.488-0.886-2.225-0.886-3.86 0-2.8745 0.28167-2.9614 8.4375-2.6042 8.0681 0.35343 8.4375 0.50643 8.4375 3.4946 0 2.9482-0.42734 3.1457-7.5513 3.4904-4.1532 0.20095-7.9501-0.03342-8.4375-0.52083zm47.239-2.97-1.939-3.75h8.8224c8.0009 0 8.9214 0.2619 9.8853 2.8125 1.5668 4.1455 0.70709 4.6875-7.4352 4.6875-6.9514 0-7.5102-0.22452-9.3333-3.75zm30.625 0v-3.75h12.356c11.754 0 12.455 0.15027 14.375 3.081 1.1103 1.6946 2.0188 3.3821 2.0188 3.75 0 0.368-6.47 0.669-14.38 0.669h-14.375v-3.75zm67.983 1.9548c-1.4229-3.708 0.49849-5.8888 4.8212-5.4722 3.4046 0.3281 4.0711 0.90399 4.0711 3.5173 0 2.6134-0.66655 3.1892-4.0711 3.5173-2.8038 0.27021-4.3046-0.21617-4.8212-1.5625zm19.154 1.0147c-0.48-0.488-0.88-2.225-0.88-3.86 0-2.8745 0.28167-2.9614 8.4375-2.6042 8.0681 0.35343 8.4375 0.50643 8.4375 3.4946 0 2.9482-0.42735 3.1457-7.5513 3.4904-4.1532 0.20095-7.9501-0.03342-8.4375-0.52083zm22.31-6.9977c-2.5616-3.6573-2.458-6.3709 0.34005-8.9031 4.56-4.1215 11.47-1.2874 11.47 4.702 0 6.2981-8.273 9.2427-11.804 4.2013zm8.5898-0.43615c2.5105-2.5105 2.4909-4.8305-0.0624-7.3839-2.5244-2.5244-5.2856-2.0524-7.4949 1.2811-1.4446 2.1797-1.41 2.9653 0.23402 5.3125 2.2754 3.2486 4.6127 3.5008 7.3233 0.79024zm-5.43-3.348c-0.0739-2.5749 0.49547-3.4375 2.2691-3.4375 1.7197 0 2.3184 0.82607 2.1875 3.0179-0.127 2.1261-0.60606 2.6648-1.6212 1.8228-0.94991-0.78783-1.6617-0.64484-2.0888 0.41959-0.35633 0.88807-0.69228 0.0678-0.74655-1.8228zm-191.35-3.438v-3.75h24.499c25.208 0 30.288 0.84898 34.347 5.7401 1.248 1.505-2.909 1.76-28.693 1.76h-30.153v-3.75zm78.75 0v-3.75h8.2371c7.0137 0 8.5856 0.41774 10.583 2.8125 1.2904 1.5469 2.365 3.2344 2.3879 3.75 0.0229 0.51562-4.7397 0.9375-10.583 0.9375h-10.625v-3.75zm68.393 2.9759c-0.49-0.491-0.89-2.205-0.89-3.809 0-2.5777 0.59-2.917 5.08-2.917 4.8077 0 5.0616 0.18621 4.6875 3.4375-0.32293 2.8066-1.092 3.5057-4.1904 3.8092-2.0872 0.20446-4.1966-0.02991-4.6875-0.52083zm17.86-2.919v-3.807h8.833 8.833l-0.39553 3.4375c-0.383 3.3286-0.66282 3.4492-8.833 3.8071l-8.44 0.369v-3.8071z"/>
  <path id="path4204" fill="#8c5568" d="m22.277 148.06c-0.375-0.65-1.042-2.87-1.483-4.94l-0.80181-3.75 1.9582 3.5124c1.077 1.9318 1.7443 4.1541 1.4828 4.9384-0.27432 0.82294-0.76334 0.92342-1.1564 0.23757zm3.973-0.17c0-0.74642 0.89256-2.9683 1.9835-4.9375l1.9835-3.5804-0.82192 3.75c-0.8386 3.8261-3.145 7.3227-3.145 4.7679zm11.233-0.70539c-0.0094-0.85938-0.34263-2.9688-0.74054-4.6875-0.67856-2.931-0.59991-2.9028 1.2671 0.45539 2.2962 4.1302 2.5089 5.7946 0.74054 5.7946-0.6875 0-1.2577-0.70313-1.2671-1.5625zm3.917-2.3015c-0.92015-2.0788-1.308-4.1446-0.86187-4.5907 0.44612-0.44611 1.1538 0.49926 1.5726 2.1008l0.7615 2.912 1.7411-2.9666 1.7411-2.9666-0.82835 3.125c-1.5427 5.82-2.3893 6.3096-4.126 2.386zm12.333 2.3015c-0.0094-0.85938-0.34263-2.9688-0.74054-4.6875-0.67856-2.931-0.59991-2.9028 1.2671 0.45539 2.2962 4.1302 2.5089 5.7946 0.74054 5.7946-0.6875 0-1.2577-0.70313-1.2671-1.5625zm3.917-2.3015c-0.92015-2.0788-1.308-4.1446-0.86187-4.5907 0.44612-0.44611 1.1538 0.49926 1.5726 2.1008l0.7615 2.912 1.7411-2.9666 1.7411-2.9666-0.82835 3.125c-1.5427 5.82-2.3893 6.3096-4.126 2.386zm18.6-0.5c0-3.6684 0.42706-4.4761 2.1875-4.137 1.4983 0.28854 2.1875 1.592 2.1875 4.137s-0.68924 3.8485-2.1875 4.137c-1.761 0.33-2.188-0.48-2.188-4.14zm3.75 1.87c0-0.6875-0.5625-1.25-1.25-1.25s-1.25 0.5625-1.25 1.25 0.5625 1.25 1.25 1.25 1.25-0.5625 1.25-1.25zm0-3.75c0-0.6875-0.5625-1.25-1.25-1.25s-1.25 0.5625-1.25 1.25 0.5625 1.25 1.25 1.25 1.25-0.5625 1.25-1.25zm8.948 1.875-0.14243-5 2.3527 3.0612 2.3527 3.0612 0.5743-3.0612c0.38149-2.0335 0.62212-1.3826 0.71673 1.9388l0.14243 5-2.3527-3.0612-2.3527-3.0612-0.5743 3.0612c-0.38149 2.0335-0.62212 1.3826-0.71673-1.9388zm13.867 0c0.0139-2.75 0.26986-3.7278 0.56885-2.1729s0.28764 3.8049-0.0252 5c-0.31286 1.1951-0.55749-0.0771-0.54362-2.8271zm17.5 0c0.0139-2.75 0.26986-3.7278 0.56885-2.1729s0.28764 3.8049-0.0252 5c-0.31286 1.1951-0.55749-0.0771-0.54362-2.8271zm8.6328 0-0.14243-5 2.3527 3.0612 2.3527 3.0612 0.5743-3.0612c0.3815-2.0335 0.62212-1.3826 0.71674 1.9388l0.14243 5-2.3527-3.0612-2.3527-3.0612-0.5743 3.0612c-0.3815 2.0335-0.62212 1.3826-0.71674-1.9388zm13.55 0.08c0-3.5316 0.48935-4.4619 2.347-4.4619 1.2908 0 3.0863 0.8909 3.99 1.9798 2.0887 2.5168 0.15729 5.9779-3.6521 6.5447-2.3196 0.3451-2.6848-0.20752-2.6848-4.0625zm5.625-0.087c0-1.3562-0.98438-2.6553-2.1875-2.887-1.6384-0.31554-2.1875 0.40911-2.1875 2.887s0.54906 3.2026 2.1875 2.887c1.2031-0.23169 2.1875-1.5309 2.1875-2.887zm8.4402 0c0.0139-2.75 0.26987-3.7278 0.56885-2.1729 0.29899 1.5549 0.28764 3.8049-0.0252 5-0.31286 1.1951-0.5575-0.0771-0.54362-2.8271zm9.2813 2.0329c0.43349-1.6577 1.3371-2.2444 2.7142-1.7625 1.6801 0.58799 1.7735 0.409 0.50183-0.9615-1.79-1.93-2.04-3.68-0.52-3.68 0.57215 0 1.6549 2.0025 2.406 4.4501 1.1684 3.807 1.1084 4.2365-0.41527 2.972-1.3684-1.1356-2.1927-1.1365-3.5577-0.004-1.4534 1.2063-1.6584 1.0224-1.1268-1.0104zm20.719-2.0329c0.0139-2.75 0.26987-3.7278 0.56886-2.1729 0.29898 1.5549 0.28763 3.8049-0.0252 5-0.31287 1.1951-0.5575-0.0771-0.54363-2.8271zm8.6328 0-0.14243-5 2.3527 3.0612 2.3527 3.0612 0.5743-3.0612c0.3815-2.0335 0.62212-1.3826 0.71673 1.9388l0.14244 5-2.3527-3.0612-2.3527-3.0612-0.5743 3.0612c-0.3815 2.0335-0.62212 1.3826-0.71674-1.9388zm-171.44-1.1c0-1.0312 0.5625-2.2226 1.25-2.6475s1.25 0.0712 1.25 1.1025c0 1.0312-0.5625 2.2226-1.25 2.6475s-1.25-0.0712-1.25-1.1025zm-3.75-42.65v-3.12h32.5c17.875 0 32.5 0.28952 32.5 0.64337 0 0.35386-1.8281 1.758-4.0625 3.1203-3.7349 2.2772-6.3555 2.4773-32.5 2.4816h-28.438v-3.125zm78.75 0c0-2.7381 0.54167-3.125 4.375-3.125s4.375 0.3869 4.375 3.125-0.54167 3.125-4.375 3.125-4.375-0.3869-4.375-3.125zm57.801 0.64196c-0.85-1.359-1.55-2.765-1.55-3.118s4.5-0.642 10-0.642c9.8333 0 10 0.05209 10 3.125 0 3.0251-0.27005 3.125-8.4493 3.125-7.0763 0-8.7013-0.40349-10-2.483zm28.45-0.64c0-3.0128 0.29166-3.125 8.125-3.125s8.125 0.11218 8.125 3.125-0.29166 3.125-8.125 3.125-8.125-0.11218-8.125-3.125zm-165-11.245c0-3.0128 0.29167-3.125 8.125-3.125s8.125 0.11218 8.125 3.125-0.29167 3.125-8.125 3.125c-7.833 0-8.125-0.112-8.125-3.125zm54.017 0.37112c1.5859-2.3966 3.1826-2.933 9.6615-3.2457 7.4725-0.36066 7.7464-0.26754 7.354 2.5-0.3777 2.6638-1.0861 2.9018-9.6615 3.2457l-9.2539 0.37112 1.8999-2.8711zm24.733-0.45c0-2.862 0.43385-3.1624 4.0625-2.8125 3.1137 0.30022 4.1558 1.0486 4.4619 3.2042 0.35023 2.466-0.15029 2.8125-4.0625 2.8125-3.954 0-4.46-0.364-4.46-3.204zm50.044 0.78637c-0.71-1.33-1.29-2.736-1.29-3.125s6.19-0.707 13.75-0.707h13.75v3.125c0 3.1243-0.002 3.125-12.456 3.125-11.036 0-12.604-0.27572-13.75-2.4178zm36.21-0.707c0-3.0128 0.29166-3.125 8.125-3.125s8.125 0.11218 8.125 3.125-0.29166 3.125-8.125 3.125c-7.83 0-8.12-0.112-8.12-3.125zm-165-10.625c0-2.2436 0.83333-2.5 8.125-2.5s8.125 0.25641 8.125 2.5-0.83333 2.5-8.125 2.5c-7.292 0-8.125-0.256-8.125-2.5zm57.138 0c-0.60352-2.3079-0.03835-2.5 7.3542-2.5 7.1746 0 8.008 0.26016 8.008 2.5 0 2.2167-0.83333 2.5-7.3542 2.5-6.303 0-7.4477-0.35736-8.008-2.5zm21.612 0c0-2.0238 0.83333-2.5 4.375-2.5s4.375 0.47619 4.375 2.5-0.83333 2.5-4.375 2.5-4.375-0.47619-4.375-2.5zm42.75 1c-2.9289-2.9289-1.3696-3.5 9.5563-3.5 9.4688 0 11.381 0.35896 13.319 2.5 2.2473 2.4833 2.1833 2.5-9.5563 2.5-7.5257 0-12.364-0.54486-13.319-1.5zm26-1c0-1.9444 0.83334-2.5 3.75-2.5s3.75 0.55556 3.75 2.5-0.83334 2.5-3.75 2.5-3.75-0.55556-3.75-2.5zm17.5 0c0-2.2436 0.83334-2.5 8.125-2.5s8.125 0.25641 8.125 2.5-0.83334 2.5-8.125 2.5-8.125-0.25641-8.125-2.5zm-165-11.25c0-2.2436 0.83333-2.5 8.125-2.5s8.125 0.25641 8.125 2.5-0.83333 2.5-8.125 2.5c-7.292 0-8.125-0.256-8.125-2.5zm52.5 0c-1.274-2.381-0.951-2.5 6.787-2.5 6.846 0 8.336 0.394 9.463 2.5 1.274 2.381 0.951 2.5-6.787 2.5-6.846 0-8.336-0.394-9.463-2.5zm26.25 0c0-2.0238 0.83333-2.5 4.375-2.5s4.375 0.47619 4.375 2.5-0.83333 2.5-4.375 2.5-4.375-0.47619-4.375-2.5zm34.04 0c-1.52-2.4339-1.2484-2.5 10.28-2.5 10.562 0 11.986 0.27009 13.18 2.5 1.2934 2.4167 0.95061 2.5-10.28 2.5-10.265 0-11.8-0.2913-13.18-2.5zm34.71 0c0-1.9444 0.83334-2.5 3.75-2.5s3.75 0.55556 3.75 2.5-0.83334 2.5-3.75 2.5-3.75-0.55556-3.75-2.5zm17.5 0c0-2.2436 0.83334-2.5 8.125-2.5s8.125 0.25641 8.125 2.5-0.83334 2.5-8.125 2.5c-7.29 0-8.12-0.256-8.12-2.5zm-164.17-8.333c-0.458-0.459-0.833-1.865-0.833-3.125 0-2.155 1.66-2.289 27.812-2.248 24.748 0.04 27.469 0.241 24.688 1.831l-3.125 1.7864 3.125 0.06344c1.7188 0.03489 3.9688 0.60871 5 1.2752 1.2406 0.80173-7.8879 1.2182-26.979 1.2309-15.87 0.0105-29.229-0.35586-29.688-0.81419zm77.917-2.213c0-2.8405 0.50646-3.2042 4.4619-3.2042 3.9122 0 4.4127 0.34651 4.0625 2.8125-0.30615 2.1556-1.3483 2.904-4.4619 3.2042-3.6286 0.34987-4.0625 0.04951-4.0625-2.8125zm26.918 0.2333-1.9741-2.8125 11.417-0.36125c9.7685-0.30908 11.662-0.03831 13.113 1.875 0.9329 1.2299 1.7141 2.6581 1.736 3.1737 0.01 0.516-5 0.938-11.15 0.938-10.17 0-11.36-0.253-13.15-2.812zm41.83-0.312c0-2.6389 0.58334-3.125 3.75-3.125s3.75 0.48611 3.75 3.125-0.58334 3.125-3.75 3.125-3.75-0.48611-3.75-3.125zm18.333 2.2917c-0.45-0.459-0.83-1.865-0.83-3.125 0-1.988 1.08-2.292 8.12-2.292 7.8333 0 8.125 0.11218 8.125 3.125 0 2.9762-0.34723 3.125-7.2917 3.125-4.0104 0-7.6667-0.375-8.125-0.83333zm-165.83-13.542c0-3.0128 0.29167-3.125 8.125-3.125s8.125 0.11218 8.125 3.125-0.29167 3.125-8.125 3.125c-7.833 0-8.125-0.112-8.125-3.125zm46.952 0.05865c1.881-2.872 2.883-3.184 10.219-3.184h8.1337l-1.8615 2.8125c-1.5707 2.3732-3.167 2.8705-10.22 3.1836l-8.357 0.371 2.086-3.183zm31.798 0.02c0-2.84 0.506-3.204 4.46-3.204 3.9122 0 4.4127 0.34651 4.0625 2.8125-0.30615 2.1556-1.3483 2.904-4.4619 3.2042-3.6286 0.34987-4.0625 0.04951-4.0625-2.8125zm19.569 0.75988c-1.14-1.257-2.07-2.685-2.07-3.172 0-0.48729 5.1363-0.72425 11.414-0.52658 10.241 0.32247 11.606 0.64846 13.277 3.1719l1.8634 2.8125h-11.209c-9.2714 0-11.566-0.39511-13.277-2.2859zm49.18-0.839c0-2.6389 0.58334-3.125 3.75-3.125s3.75 0.48611 3.75 3.125-0.58334 3.125-3.75 3.125-3.75-0.48611-3.75-3.125zm17.5 0c0-3.0128 0.29166-3.125 8.125-3.125s8.125 0.11218 8.125 3.125-0.29166 3.125-8.125 3.125-8.125-0.11218-8.125-3.125zm-164.77-10.937c0.35876-2.5261 1.195-2.8504 8.2119-3.1846 7.6364-0.36376 7.8125-0.30036 7.8125 2.8125 0 3.0897-0.24486 3.1846-8.2119 3.1846-7.8011 0-8.192-0.14071-7.8125-2.8125zm51.024-0.313c0-2.9861 0.33333-3.125 7.5-3.125s7.5 0.13889 7.5 3.125-0.33333 3.125-7.5 3.125-7.5-0.13889-7.5-3.125zm27.5-0.0792c0-2.862 0.43385-3.1624 4.0625-2.8125 3.1137 0.30022 4.1558 1.0486 4.4619 3.2042 0.35023 2.466-0.15029 2.8125-4.0625 2.8125-3.954 0-4.46-0.364-4.46-3.204zm11.294 0.78637c-0.71169-1.3298-1.294-2.736-1.294-3.125 0-0.38895 4.9978-0.70718 11.106-0.70718 10.467 0 11.224 0.17978 13.154 3.125l2.0476 3.125h-11.86c-10.446 0-12.014-0.2882-13.154-2.4178zm57.46-0.707c0-2.6389 0.58334-3.125 3.75-3.125s3.75 0.48611 3.75 3.125-0.58334 3.125-3.75 3.125-3.75-0.48611-3.75-3.125zm17.726 0.3125c0.35877-2.5261 1.195-2.8504 8.2119-3.1846 7.6364-0.36376 7.8125-0.30036 7.8125 2.8125 0 3.0897-0.24485 3.1846-8.2119 3.1846-7.8011 0-8.192-0.14071-7.8125-2.8125zm-165.23-10.938c0-2.2436 0.83333-2.5 8.125-2.5s8.125 0.25641 8.125 2.5-0.83333 2.5-8.125 2.5c-7.292 0-8.125-0.256-8.125-2.5zm48.719-0.05884c-1.3253-2.4764-1.0955-2.5469 7.1306-2.1875 6.9249 0.30252 8.5773 0.7767 8.9171 2.5588 0.35995 1.8879-0.61678 2.1875-7.1306 2.1875-6.3262 0-7.7693-0.41411-8.9171-2.5588zm30.031 0.059c0-2.3299 0.83333-2.5 12.25-2.5 11.522 0 15.25 0.97787 15.25 4 0 0.55-6.1875 1-13.75 1-12.917 0-13.75-0.15152-13.75-2.5zm68.75 0c0-1.9444 0.83334-2.5 3.75-2.5s3.75 0.55556 3.75 2.5-0.83334 2.5-3.75 2.5-3.75-0.55556-3.75-2.5zm17.5 0c0-2.2436 0.83334-2.5 8.125-2.5s8.125 0.25641 8.125 2.5-0.83334 2.5-8.125 2.5-8.125-0.25641-8.125-2.5zm23.074-3.8332c-1.2826-2.0753-0.13139-2.363 1.6632-0.41576 0.88647 0.96191 1.0603 1.7489 0.38626 1.7489-0.67403 0-1.5963-0.59992-2.0494-1.3332zm4.43-3.667c-1.6024-1.0355-1.5569-1.2145 0.3125-1.2309 1.21-0.01 2.19 0.543 2.19 1.231 0 1.5245-0.14099 1.5245-2.5 0zm6.3487-0.72917c0.06-1.4562 0.35617-1.7524 0.7552-0.75521 0.36108 0.90234 0.31669 1.9805-0.0986 2.3958-0.41537 0.41536-0.7108-0.32292-0.65652-1.6406zm-198.85-3.717v-3.197l25.33 0.384c23.725 0.35966 25.606 0.56086 29.688 3.1754l4.357 2.792-29.687 0.021-29.688 0.021v-3.196zm78.75 0.01437c0-3.1268 0.14413-3.1757 8.291-2.8125 6.9835 0.31133 8.5845 0.81313 10.152 3.1821l1.86 2.812h-10.15c-10.042 0-10.15-0.034-10.15-3.182zm68.75 0.057c0-2.6389 0.58334-3.125 3.75-3.125s3.75 0.48611 3.75 3.125-0.58334 3.125-3.75 3.125-3.75-0.48611-3.75-3.125zm17.5 0c0-3.0128 0.29166-3.125 8.125-3.125s8.125 0.11218 8.125 3.125-0.29166 3.125-8.125 3.125c-7.83 0-8.12-0.112-8.12-3.125zm22.5 0.69877c0-0.64693 0.55606-1.5199 1.2357-1.9399 0.70857-0.43792 0.91812 0.06382 0.49126 1.1762-0.83099 2.1655-1.727 2.5617-1.727 0.76369zm4.7656-3.4277c0.90234-0.36109 1.9805-0.31668 2.3958 0.098684 0.41537 0.41536-0.32292 0.7108-1.6406 0.65652-1.4562-0.05998-1.7524-0.35618-0.75522-0.75521z"/>
  <path id="path4202" fill="#641934" d="m22.029 146.83c-1.2062-3.1434-0.85039-3.9544 0.62317-1.4204 0.72961 1.2547 1.0632 2.5446 0.74141 2.8664-0.32184 0.32184-0.9359-0.32886-1.3646-1.446zm4.221 0.74c0-0.64692 0.55606-1.5199 1.2357-1.9399 0.70858-0.43793 0.91813 0.0639 0.49126 1.1762-0.83099 2.1655-1.7269 2.5617-1.7269 0.7637zm16.288 0.55123c0-0.6875 0.54527-2.0938 1.2117-3.125 0.66644-1.0312 1.2117-1.3125 1.2117-0.625s-0.54527 2.0938-1.2117 3.125c-0.66644 1.0312-1.2117 1.3125-1.2117 0.625zm16.25 0c0-0.6875 0.54527-2.0938 1.2117-3.125 0.66644-1.0312 1.2117-1.3125 1.2117-0.625s-0.54527 2.0938-1.2117 3.125c-0.66644 1.0312-1.2117 1.3125-1.2117 0.625zm17.462-3.74c0-3.6684 0.42706-4.4761 2.1875-4.137 1.4983 0.28854 2.1875 1.592 2.1875 4.137s-0.68924 3.8485-2.1875 4.137c-1.761 0.33-2.188-0.48-2.188-4.14zm3.75 1.87c0-0.6875-0.5625-1.25-1.25-1.25s-1.25 0.5625-1.25 1.25 0.5625 1.25 1.25 1.25 1.25-0.5625 1.25-1.25zm0-3.75c0-0.6875-0.5625-1.25-1.25-1.25s-1.25 0.5625-1.25 1.25 0.5625 1.25 1.25 1.25 1.25-0.5625 1.25-1.25zm8.75 1.8012c0-2.4468 0.46871-4.1591 1.0416-3.805 0.98528 0.60894 0.46802 8.2538-0.55846 8.2538-0.26572 0-0.48313-2.002-0.48313-4.4488zm4.6718 3.5113c-0.26168-0.51563-0.08017-2.625 0.40334-4.6875 0.86434-3.687 0.8816-3.6712 1.027 0.9375 0.14043 4.4508-0.38096 5.8178-1.4303 3.75zm9.3935-3.4375c0.0139-2.75 0.26986-3.7278 0.56885-2.1729s0.28764 3.8049-0.0252 5c-0.31286 1.1951-0.55749-0.0771-0.54362-2.8271zm17.5 0c0.0139-2.75 0.26986-3.7278 0.56885-2.1729s0.28764 3.8049-0.0252 5c-0.31286 1.1951-0.55749-0.0771-0.54362-2.8271zm8.4348-0.0738c0-2.4468 0.46871-4.1591 1.0416-3.805 0.98527 0.60894 0.46801 8.2538-0.55847 8.2538-0.26571 0-0.48312-2.002-0.48312-4.4488zm4.6718 3.5113c-0.26167-0.51563-0.0801-2.625 0.40334-4.6875 0.86434-3.687 0.8816-3.6712 1.027 0.9375 0.14043 4.4508-0.38096 5.8178-1.4304 3.75zm9.08-3.43c0-3.7467 0.40392-4.3542 2.8125-4.23 2.1165 0.10912 2.2711 0.28647 0.625 0.71666-2.7792 0.72628-3.0216 6.6383-0.27223 6.6383 1.0534 0 2.424-1.2656 3.0458-2.8125 0.69346-1.7252 1.1611-2.0635 1.2097-0.875 0.105 2.5678-2.3766 4.9375-5.1708 4.9375-1.7381 0-2.25-0.99538-2.25-4.375zm14.065 0c0.0139-2.75 0.26987-3.7278 0.56885-2.1729 0.29899 1.5549 0.28764 3.8049-0.0252 5-0.31286 1.1951-0.5575-0.0771-0.54362-2.8271zm30 0c0.0139-2.75 0.26987-3.7278 0.56886-2.1729 0.29898 1.5549 0.28763 3.8049-0.0252 5-0.31287 1.1951-0.5575-0.0771-0.54363-2.8271zm8.44-0.08c0-2.4468 0.46871-4.1591 1.0416-3.805 0.98527 0.60894 0.46801 8.2538-0.55846 8.2538-0.26572 0-0.48313-2.002-0.48313-4.4488zm4.6718 3.5113c-0.26167-0.51563-0.0801-2.625 0.40334-4.6875 0.86434-3.687 0.8816-3.6712 1.027 0.9375 0.14043 4.4508-0.38096 5.8178-1.4304 3.75zm-162.17-1.56c0-0.6875 0.5625-1.25 1.25-1.25s1.25 0.5625 1.25 1.25-0.5625 1.25-1.25 1.25-1.25-0.5625-1.25-1.25zm16.25 0c0-0.6875 0.5625-1.25 1.25-1.25s1.25 0.5625 1.25 1.25-0.5625 1.25-1.25 1.25-1.25-0.5625-1.25-1.25zm114.69 0.38834c-1.2031-0.3144-2.1875-1.0402-2.1875-1.613 0-0.57273 1.125-0.74713 2.5-0.38756 1.375 0.35958 2.5 1.1507 2.5 1.758 0 0.60731-0.14063 1.039-0.3125 0.95921-0.17188-0.0797-1.2969-0.40225-2.5-0.71666zm-127.64-3.52c-0.39573-1.0312-0.17466-1.875 0.49126-1.875s1.2108 0.84375 1.2108 1.875-0.22107 1.875-0.49126 1.875c-0.2702 0-0.81504-0.84375-1.2108-1.875zm16.25 0c-0.39573-1.0312-0.17466-1.875 0.49126-1.875s1.2108 0.84375 1.2108 1.875-0.22107 1.875-0.49126 1.875c-0.2702 0-0.81504-0.84375-1.2108-1.875zm-32.593-0.99141c0.46941-1.2328 1.1684-1.9265 1.5532-1.5417 0.38486 0.38487 0.000792 1.3935-0.85348 2.2414-1.2345 1.2253-1.3781 1.0818-0.69974-0.69975zm143.88 0.78307c-0.45834-0.45832-0.83334-1.4146-0.83334-2.125 0-0.78325 0.58221-0.70945 1.4792 0.1875 0.81355 0.81355 1.1886 1.7698 0.83334 2.125-0.35521 0.35522-1.0208 0.27084-1.4792-0.1875zm-148.34-42.29v-3.12h32.574c18.391 0 32.278 0.47806 31.895 1.098-0.37323 0.6039-2.6008 2.0101-4.9502 3.125-3.5389 1.6793-9.0097 2.027-31.895 2.027h-27.624v-3.125zm78.75 0c0-2.6389 0.58333-3.125 3.75-3.125s3.75 0.48611 3.75 3.125-0.58333 3.125-3.75 3.125-3.75-0.48611-3.75-3.125zm59.098 1.5625c-3.48-4.493-3.2-4.68 7.08-4.68 9.91 0 10.07 0.05 10.07 3.12 0 3.0067-0.30188 3.125-7.972 3.125-4.8997 0-8.4376-0.60215-9.1804-1.5625zm27.15-1.56c0-3.0128 0.29166-3.125 8.125-3.125s8.125 0.11218 8.125 3.125-0.29166 3.125-8.125 3.125-8.125-0.11218-8.125-3.125zm-165-10.62c0-2.2436 0.83333-2.5 8.125-2.5s8.125 0.25641 8.125 2.5-0.83333 2.5-8.125 2.5c-7.292 0-8.125-0.256-8.125-2.5zm54.04 0c1.2957-2.0747 2.915-2.5 9.5193-2.5 6.7431 0 7.8422 0.30185 7.1993 1.9772-0.418 1.088-0.759 2.213-0.759 2.5 0 0.288-3.942 0.523-8.761 0.523-8.447 0-8.704-0.089-7.199-2.5zm24.71 0c0-1.9444 0.83333-2.5 3.75-2.5s3.75 0.55556 3.75 2.5-0.83333 2.5-3.75 2.5-3.75-0.55556-3.75-2.5zm50.29 0c-1.5258-2.4432-1.2484-2.5 12.199-2.5 12.93 0 13.76 0.151 13.76 2.5 0 2.3292-0.83334 2.5-12.199 2.5-10.846 0-12.373-0.27742-13.761-2.5zm35.96 0c0-2.2436 0.83334-2.5 8.125-2.5s8.125 0.25641 8.125 2.5-0.83334 2.5-8.125 2.5c-7.29 0-8.12-0.256-8.12-2.5zm-165-11.25c0-2.2436 0.83333-2.5 8.125-2.5s8.125 0.25641 8.125 2.5-0.83333 2.5-8.125 2.5c-7.292 0-8.125-0.256-8.125-2.5zm57.5 0c0-2.2222 0.83333-2.5 7.5-2.5s7.5 0.27778 7.5 2.5-0.83333 2.5-7.5 2.5-7.5-0.27778-7.5-2.5zm21.25 0c0-1.9444 0.83333-2.5 3.75-2.5s3.75 0.55556 3.75 2.5-0.83333 2.5-3.75 2.5-3.75-0.55556-3.75-2.5zm42.5 0c-1.291-2.4123-0.95061-2.5 9.706-2.5 10.332 0 14.044 1.0572 14.044 4 0 0.55-5.0427 1-11.206 1-9.9267 0-11.359-0.28541-12.544-2.5zm26.25 0c0-1.9444 0.83334-2.5 3.75-2.5s3.75 0.55556 3.75 2.5-0.83334 2.5-3.75 2.5-3.75-0.55556-3.75-2.5zm17.5 0c0-2.2436 0.83334-2.5 8.125-2.5s8.125 0.25641 8.125 2.5-0.83334 2.5-8.125 2.5-8.125-0.25641-8.125-2.5zm-165-11.25c0-2.2436 0.83333-2.5 8.125-2.5s8.125 0.25641 8.125 2.5-0.83333 2.5-8.125 2.5c-7.292 0-8.125-0.256-8.125-2.5zm52.79 0c-1.5009-2.4033-1.2484-2.5 6.5303-2.5 6.8123 0 8.3032 0.39526 9.4296 2.5 1.2721 2.3769 0.95061 2.5-6.5303 2.5-6.5145 0-8.1369-0.43013-9.4296-2.5zm25.96 0c0-1.9444 0.83333-2.5 3.75-2.5s3.75 0.55556 3.75 2.5-0.83333 2.5-3.75 2.5-3.75-0.55556-3.75-2.5zm35.25 1c-2.9336-2.9336-1.3629-3.5 9.706-3.5 9.9267 0 11.359 0.28541 12.544 2.5 1.291 2.4123 0.95061 2.5-9.706 2.5-6.92 0-11.6-0.56-12.54-1.5zm33.5-1c0-1.9444 0.83334-2.5 3.75-2.5s3.75 0.55556 3.75 2.5-0.83334 2.5-3.75 2.5-3.75-0.55556-3.75-2.5zm17.5 0c0-2.2436 0.83334-2.5 8.125-2.5s8.125 0.25641 8.125 2.5-0.83334 2.5-8.125 2.5c-7.29 0-8.12-0.256-8.12-2.5zm-165-11.25c0-2.4281 0.79949-2.4971 27.812-2.3985 24.198 0.08833 27.325 0.31678 24.062 1.7576l-3.75 1.6561 3.75 0.55506c2.064 0.306-8.765 0.64-24.062 0.743-27.041 0.182-27.812 0.118-27.812-2.313zm78.75 0c0-1.9444 0.83333-2.5 3.75-2.5s3.75 0.55556 3.75 2.5-0.83333 2.5-3.75 2.5-3.75-0.55556-3.75-2.5zm26.54 0c-1.5171-2.4293-1.2484-2.5 9.5056-2.5 9.4794 0 11.391 0.35861 13.329 2.5 2.2472 2.4832 2.1833 2.5-9.5056 2.5-10.414 0-11.948-0.28759-13.329-2.5zm42.21 0c0-1.9444 0.83334-2.5 3.75-2.5s3.75 0.55556 3.75 2.5-0.83334 2.5-3.75 2.5-3.75-0.55556-3.75-2.5zm17.5 0c0-2.2436 0.83334-2.5 8.125-2.5s8.125 0.25641 8.125 2.5-0.83334 2.5-8.125 2.5-8.125-0.25641-8.125-2.5zm-164.17-8.333c-0.458-0.459-0.833-1.865-0.833-3.125 0-1.988 1.08-2.292 8.125-2.292 7.8333 0 8.125 0.11218 8.125 3.125 0 2.9762-0.34722 3.125-7.2917 3.125-4.0104 0-7.6667-0.375-8.125-0.83333zm46.251-2.1929c2.027-2.783 3.21-3.15 10.256-3.185l7.965-0.039-1.862 2.812c-1.5722 2.3754-3.166 2.8703-10.256 3.1845l-8.3942 0.37196 2.2907-3.1452zm31.666-0.099c0-2.6389 0.58333-3.125 3.75-3.125s3.75 0.48611 3.75 3.125-0.58333 3.125-3.75 3.125-3.75-0.48611-3.75-3.125zm19.417 0.3125-1.9748-2.8125 10.237-0.36641c11.657-0.41725 12.881-0.1342 14.783 3.4208 1.3409 2.5054 1.0912 2.5706-9.8474 2.5706-10.22 0-11.4-0.2513-13.198-2.8125zm49.33-0.313c0-2.6389 0.58334-3.125 3.75-3.125s3.75 0.48611 3.75 3.125-0.58334 3.125-3.75 3.125-3.75-0.48611-3.75-3.125zm18.333 2.2917c-0.45-0.459-0.83-1.865-0.83-3.125 0-1.988 1.08-2.292 8.12-2.292 7.8333 0 8.125 0.11218 8.125 3.125 0 2.9762-0.34723 3.125-7.2917 3.125-4.0104 0-7.6667-0.375-8.125-0.83333zm-165.83-12.917c0-2.2436 0.83333-2.5 8.125-2.5s8.125 0.25641 8.125 2.5-0.83333 2.5-8.125 2.5c-7.292 0-8.125-0.256-8.125-2.5zm51.25 0c0-2.2222 0.83333-2.5 7.5-2.5s7.5 0.27778 7.5 2.5-0.83333 2.5-7.5 2.5-7.5-0.27778-7.5-2.5zm27.5 0c0-1.9444 0.83333-2.5 3.75-2.5s3.75 0.55556 3.75 2.5-0.83333 2.5-3.75 2.5-3.75-0.55556-3.75-2.5zm11.54 0c-1.5171-2.4293-1.2484-2.5 9.5056-2.5 9.4794 0 11.391 0.35861 13.329 2.5 2.2472 2.4832 2.1833 2.5-9.5056 2.5-10.414 0-11.948-0.28759-13.329-2.5zm57.21 0c0-1.9444 0.83334-2.5 3.75-2.5s3.75 0.55556 3.75 2.5-0.83334 2.5-3.75 2.5-3.75-0.55556-3.75-2.5zm17.5 0c0-2.2436 0.83334-2.5 8.125-2.5s8.125 0.25641 8.125 2.5-0.83334 2.5-8.125 2.5c-7.29 0-8.12-0.256-8.12-2.5zm-165-11.25c0-2.2436 0.83333-2.5 8.125-2.5s8.125 0.25641 8.125 2.5-0.83333 2.5-8.125 2.5c-7.292 0-8.125-0.256-8.125-2.5zm49.04 0c-1.5002-2.4022-1.2484-2.5 6.4406-2.5 7.514 0 9.519 0.943 9.519 4.477 0 0.288-3.24 0.523-7.199 0.523-5.8456 0-7.4929-0.4701-8.7606-2.5zm29.71 0c0-2.3299 0.83333-2.5 12.25-2.5 11.522 0 15.25 0.97787 15.25 4 0 0.55-6.1875 1-13.75 1-12.917 0-13.75-0.15152-13.75-2.5zm68.75 0c0-1.9444 0.83334-2.5 3.75-2.5s3.75 0.55556 3.75 2.5-0.83334 2.5-3.75 2.5-3.75-0.55556-3.75-2.5zm17.5 0c0-2.2436 0.83334-2.5 8.125-2.5s8.125 0.25641 8.125 2.5-0.83334 2.5-8.125 2.5-8.125-0.25641-8.125-2.5zm33.849-8.2292c0.06-1.4562 0.35617-1.7524 0.7552-0.75521 0.36108 0.90234 0.31669 1.9805-0.0986 2.3958-0.41537 0.41536-0.7108-0.32292-0.65652-1.6406zm-198.85-3.646v-3.125l22.188 0.007c22.233 0.00699 28.939 0.87126 33.495 4.3167 2.1774 1.6465-0.70995 1.8511-26.62 1.8866l-29.063 0.04v-3.125zm78.75 0c0-3.007 0.30125-3.125 7.9812-3.125 7.134 0 8.1986 0.33174 10.029 3.125l2.05 3.125h-10.03c-9.865 0-10.03-0.051-10.03-3.125zm68.75 0c0-2.6389 0.58334-3.125 3.75-3.125s3.75 0.48611 3.75 3.125-0.58334 3.125-3.75 3.125-3.75-0.48611-3.75-3.125zm17.5 0c0-3.0128 0.29166-3.125 8.125-3.125s8.125 0.11218 8.125 3.125-0.29166 3.125-8.125 3.125c-7.83 0-8.12-0.112-8.12-3.125z"/>
 </g>
 <path id="path4248" d="m164.97-104.75 0.0336 0.36988" stroke="#000" stroke-width="1px" fill="none"/>
 <path id="path4271" d="m0.80702-133.23 0.40351 0.1345" stroke="#000" stroke-width="1px" fill="none"/>
</svg>
