<?xml version="1.0" encoding="UTF-8" standalone="no"?>
<!-- Created with Inkscape (http://www.inkscape.org/) -->
<svg id="svg2" xmlns:rdf="http://www.w3.org/1999/02/22-rdf-syntax-ns#" xmlns="http://www.w3.org/2000/svg" height="100" viewBox="0 0 141.66667 100" width="141.67" version="1.1" xmlns:cc="http://creativecommons.org/ns#" xmlns:dc="http://purl.org/dc/elements/1.1/">
 <metadata id="metadata8">
  <rdf:RDF>
   <cc:Work rdf:about="">
    <dc:format>image/svg+xml</dc:format>
    <dc:type rdf:resource="http://purl.org/dc/dcmitype/StillImage"/>
    <dc:title/>
   </cc:Work>
  </rdf:RDF>
 </metadata>
 <g id="g865" transform="matrix(.61560 0 0 .64510 157.1 -101.67)">
  <path id="path823" d="m-246 261.91v-3.3333h34.667c19.067 0 34.667 0.30882 34.667 0.68626 0 0.37745-1.95 1.8752-4.3333 3.3284-3.9839 2.429-6.7792 2.6425-34.667 2.6471l-30.333 0.005zm84 0c0-2.9206 0.57778-3.3333 4.6667-3.3333s4.6667 0.4127 4.6667 3.3333-0.57778 3.3333-4.6667 3.3333-4.6667-0.4127-4.6667-3.3333zm61.654 0.68476c-0.90973-1.4567-1.654-2.9567-1.654-3.3333 0-0.37662 4.8-0.68476 10.667-0.68476 10.489 0 10.667 0.0556 10.667 3.3333 0 3.2268-0.28805 3.3333-9.0126 3.3333-7.5481 0-9.2814-0.43039-10.667-2.6486zm30.346-0.68476c0-3.2137 0.3111-3.3333 8.6667-3.3333s8.6667 0.11965 8.6667 3.3333c0 3.2137-0.31111 3.3333-8.6667 3.3333s-8.6667-0.11966-8.6667-3.3333zm-176-12c0-3.2137 0.31111-3.3333 8.6667-3.3333s8.6667 0.11965 8.6667 3.3333c0 3.2137-0.31111 3.3333-8.6667 3.3333s-8.6667-0.11966-8.6667-3.3333zm57.618 0.39587c1.6916-2.5564 3.3947-3.1286 10.306-3.4621 7.9706-0.38471 8.2628-0.28538 7.8443 2.6667-0.40288 2.8414-1.1585 3.0953-10.306 3.4621l-9.8708 0.39586zm26.382-0.48034c0-3.0528 0.46278-3.3732 4.3333-3 3.3213 0.32022 4.4328 1.1185 4.7594 3.4178 0.37357 2.6304-0.1603 3-4.3333 3-4.2192 0-4.7594-0.38795-4.7594-3.4178zm53.38 0.8388c-0.75914-1.4185-1.3802-2.9185-1.3802-3.3333 0-0.41488 6.6-0.75432 14.667-0.75432h14.667v3.3333c0 3.3326-0.003 3.3333-13.286 3.3333-11.771 0-13.444-0.29411-14.667-2.579zm38.62-0.75433c0-3.2137 0.3111-3.3333 8.6667-3.3333s8.6667 0.11965 8.6667 3.3333c0 3.2137-0.31111 3.3333-8.6667 3.3333s-8.6667-0.11966-8.6667-3.3333zm-176-11.333c0-2.3932 0.88889-2.6667 8.6667-2.6667s8.6667 0.27351 8.6667 2.6667-0.88889 2.6667-8.6667 2.6667-8.6667-0.27351-8.6667-2.6667zm60.947 0c-0.64376-2.4617-0.0409-2.6667 7.8445-2.6667 7.653 0 8.5418 0.2775 8.5418 2.6667 0 2.3645-0.88889 2.6667-7.8445 2.6667-6.7232 0-7.9442-0.38119-8.5418-2.6667zm23.053 0c0-2.1587 0.88889-2.6667 4.6667-2.6667s4.6667 0.50794 4.6667 2.6667c0 2.1587-0.88889 2.6667-4.6667 2.6667s-4.6667-0.50794-4.6667-2.6667zm45.6 1.0667c-3.1242-3.1242-1.4609-3.7333 10.193-3.7333 10.1 0 12.14 0.38289 14.207 2.6667 2.3971 2.6488 2.3288 2.6667-10.193 2.6667-8.0274 0-13.188-0.58119-14.207-1.6zm27.733-1.0667c0-2.0741 0.88889-2.6667 4-2.6667s4 0.59259 4 2.6667-0.88889 2.6667-4 2.6667-4-0.59259-4-2.6667zm18.667 0c0-2.3932 0.88889-2.6667 8.6667-2.6667s8.6667 0.27351 8.6667 2.6667-0.88889 2.6667-8.6667 2.6667-8.6667-0.27351-8.6667-2.6667zm-176-12c0-2.3932 0.88889-2.6667 8.6667-2.6667s8.6667 0.27351 8.6667 2.6667-0.88889 2.6667-8.6667 2.6667-8.6667-0.27351-8.6667-2.6667zm56 0c-1.3591-2.5395-1.014-2.6667 7.2395-2.6667 7.3021 0 8.8914 0.41988 10.094 2.6667 1.3591 2.5395 1.014 2.6667-7.2395 2.6667-7.3021 0-8.8914-0.41988-10.094-2.6667zm28 0c0-2.1587 0.88889-2.6667 4.6667-2.6667s4.6667 0.50794 4.6667 2.6667c0 2.1587-0.88889 2.6667-4.6667 2.6667s-4.6667-0.50794-4.6667-2.6667zm36.309 0c-1.6213-2.5962-1.3316-2.6667 10.966-2.6667 11.266 0 12.785 0.2881 14.058 2.6667 1.3796 2.5778 1.014 2.6667-10.966 2.6667-10.949 0-12.587-0.31072-14.058-2.6667zm37.024 0c0-2.0741 0.88889-2.6667 4-2.6667s4 0.59259 4 2.6667-0.88889 2.6667-4 2.6667-4-0.59259-4-2.6667zm18.667 0c0-2.3932 0.88889-2.6667 8.6667-2.6667s8.6667 0.27351 8.6667 2.6667-0.88889 2.6667-8.6667 2.6667-8.6667-0.27351-8.6667-2.6667zm-175.11-8.8889c-0.48889-0.48889-0.88889-1.9889-0.88889-3.3333 0-2.2986 1.7707-2.4416 29.667-2.3972 26.397 0.042 29.299 0.25725 26.333 1.9528l-3.3333 1.9055 3.3333 0.0677c1.8333 0.0372 4.2333 0.64929 5.3333 1.3602 1.3233 0.85518-8.4138 1.2994-28.778 1.3129-16.928 0.0112-31.178-0.37958-31.667-0.86847zm83.111-2.36c0-3.0299 0.54023-3.4178 4.7594-3.4178 4.173 0 4.7069 0.36961 4.3333 3-0.32656 2.2993-1.4381 3.0976-4.7594 3.4178-3.8706 0.3732-4.3333 0.0528-4.3333-3zm28.712 0.24886-2.1057-3 12.178-0.38533c10.42-0.32969 12.44-0.0409 13.988 2 0.9951 1.3119 1.8284 2.8353 1.8517 3.3853s-5.3236 1-11.882 1c-10.853 0-12.114-0.26949-14.03-3zm44.621-0.33333c0-2.8148 0.62223-3.3333 4-3.3333s4 0.51852 4 3.3333-0.62223 3.3333-4 3.3333-4-0.51852-4-3.3333zm19.556 2.4444c-0.48889-0.48889-0.88889-1.9889-0.88889-3.3333 0-2.1197 1.1515-2.4444 8.6667-2.4444 8.3556 0 8.6667 0.11966 8.6667 3.3333 0 3.1746-0.37037 3.3333-7.7778 3.3333-4.2778 0-8.1778-0.4-8.6667-0.88889zm-176.89-14.444c0-3.2137 0.31111-3.3333 8.6667-3.3333s8.6667 0.11966 8.6667 3.3333c0 3.2137-0.31111 3.3333-8.6667 3.3333s-8.6667-0.11965-8.6667-3.3333zm50.082 0.0626c2.007-3.0631 3.0754-3.3959 10.901-3.3959h8.676l-1.9856 3c-1.6754 2.5314-3.3782 3.0618-10.901 3.3959l-8.9154 0.39589 2.2251-3.3959zm33.918 0.0219c0-3.0299 0.54023-3.4178 4.7594-3.4178 4.173 0 4.7069 0.36961 4.3333 3-0.32656 2.2993-1.4381 3.0976-4.7594 3.4178-3.8706 0.37319-4.3333 0.0528-4.3333-3zm20.873 0.81053c-1.2137-1.3411-2.2066-2.8636-2.2066-3.3834 0-0.51977 5.4787-0.77253 12.175-0.56168 10.924 0.34397 12.379 0.69169 14.163 3.3834l1.9877 3h-11.956c-9.8894 0-12.337-0.42146-14.163-2.4383zm52.46-0.89501c0-2.8148 0.62223-3.3333 4-3.3333s4 0.51851 4 3.3333-0.62223 3.3333-4 3.3333-4-0.51852-4-3.3333zm18.667 0c0-3.2137 0.3111-3.3333 8.6667-3.3333s8.6667 0.11965 8.6667 3.3333c0 3.2137-0.31111 3.3333-8.6667 3.3333s-8.6667-0.11965-8.6667-3.3333zm-175.76-11.667c0.38268-2.6945 1.2747-3.0404 8.7594-3.397 8.1455-0.38801 8.3333-0.32038 8.3333 3 0 3.2957-0.26118 3.397-8.7594 3.397-8.3212 0-8.7381-0.15009-8.3333-3zm54.426-0.33333c0-3.1852 0.35555-3.3333 8-3.3333s8 0.14815 8 3.3333-0.35556 3.3333-8 3.3333-8-0.14815-8-3.3333zm29.333-0.0845c0-3.0528 0.46278-3.3732 4.3333-3 3.3213 0.32023 4.4328 1.1185 4.7594 3.4178 0.37357 2.6304-0.1603 3-4.3333 3-4.2192 0-4.7594-0.38795-4.7594-3.4178zm12.047 0.83879c-0.75914-1.4184-1.3802-2.9184-1.3802-3.3333 0-0.41488 5.331-0.75433 11.847-0.75433 11.165 0 11.972 0.19177 14.031 3.3333l2.1841 3.3333h-12.65c-11.143 0-12.815-0.30742-14.031-2.579zm61.286-0.75431c0-2.8148 0.62223-3.3333 4-3.3333s4 0.51852 4 3.3333-0.62223 3.3333-4 3.3333-4-0.51852-4-3.3333zm18.907 0.33333c0.38268-2.6945 1.2747-3.0404 8.7594-3.397 8.1455-0.38801 8.3333-0.32038 8.3333 3 0 3.2957-0.26117 3.397-8.7594 3.397-8.3212 0-8.7381-0.15009-8.3333-3zm-176.24-11.667c0-2.3932 0.88889-2.6667 8.6667-2.6667s8.6667 0.2735 8.6667 2.6667-0.88889 2.6667-8.6667 2.6667-8.6667-0.2735-8.6667-2.6667zm51.966-0.0628c-1.4137-2.6415-1.1686-2.7166 7.606-2.3333 7.3865 0.32269 9.1492 0.82848 9.5116 2.7294 0.38395 2.0137-0.6579 2.3333-7.606 2.3333-6.748 0-8.2872-0.44171-9.5116-2.7294zm32.034 0.0628c0-2.4853 0.88889-2.6667 13.067-2.6667 12.29 0 16.267 1.0431 16.267 4.2667 0 0.58667-6.6 1.0667-14.667 1.0667-13.778 0-14.667-0.16162-14.667-2.6667zm73.333 0c0-2.0741 0.88889-2.6667 4-2.6667s4 0.59259 4 2.6667-0.88889 2.6667-4 2.6667-4-0.59259-4-2.6667zm18.667 0c0-2.3932 0.88889-2.6667 8.6667-2.6667s8.6667 0.2735 8.6667 2.6667-0.88889 2.6667-8.6667 2.6667-8.6667-0.2735-8.6667-2.6667zm-176-12.743v-3.4096l27.019 0.40958c25.307 0.38364 27.313 0.59825 31.667 3.3871l4.6477 2.9775-31.667 0.0225-31.667 0.0225zm84 0.0153c0-3.3352 0.15374-3.3874 8.8437-3 7.4491 0.33209 9.1568 0.86735 10.829 3.3943l1.9856 3h-10.829c-10.714 0-10.829-0.0361-10.829-3.3942zm73.333 0.0609c0-2.8148 0.62223-3.3333 4-3.3333s4 0.51852 4 3.3333-0.62223 3.3333-4 3.3333-4-0.51852-4-3.3333zm18.667 0c0-3.2137 0.3111-3.3333 8.6667-3.3333s8.6667 0.11966 8.6667 3.3333c0 3.2137-0.31111 3.3333-8.6667 3.3333s-8.6667-0.11965-8.6667-3.3333z" stroke-width="1.3333" fill="#641934"/>
  <text id="text845" style="word-spacing:0px;letter-spacing:0px" xml:space="preserve" transform="scale(1.0215 .97894)" line-height="1.25" font-size="11.942px" y="313.93988" x="-241.28217" font-family="sans-serif" fill="#641934"><tspan id="tspan843" y="313.93988" x="-241.28217" style="letter-spacing:5.253px" stroke-width=".29856">WWW.BNI-INDIA.IN</tspan></text>
  <g id="g856" transform="translate(-266.13 155.42)">
   <circle id="path847" stroke-linejoin="bevel" cx="227.25" stroke-linecap="round" stroke="#641934" cy="16.432" r="7.1148" stroke-width=".5" fill="none"/>
   <text id="text851" style="word-spacing:0px;letter-spacing:0px" xml:space="preserve" font-size="9.3505px" line-height="1.25" y="19.886158" x="224.46101" font-family="sans-serif" fill="#641934"><tspan id="tspan849" y="19.886158" x="224.46101" stroke-width=".23376">R</tspan></text>
  </g>
 </g>
</svg>
