<svg xmlns="http://www.w3.org/2000/svg" width="50px" height="50px" viewBox="0 0 685.17 160"  ><defs><style>.cls-1{fill:#008c4d;}.cls-2{fill:#c33;}</style></defs><title>Bruderer_Logo_svg</title><g id="Ebene_2" data-name="Ebene 2"><g id="Ebene_1-2" data-name="Ebene 1"><path class="cls-1" d="M595.68,159.3h20.46v-3.46H600V143.78h14.91v-3.45H600V129.49h15.7V126h-20Zm-34.67,0h9.72c10.88,0,16-7.34,16-16.64S581.1,126,571.19,126H561Zm4.29-29.81H570c8.64,0,12.19,5.18,12.19,13.17,0,11.12-6.35,13.18-12.19,13.18H565.3ZM535.92,126,523,159.3h4.44l3.32-8.88h15.28l3.22,8.88h4.63L541.34,126ZM532,147l4.39-11.49c.7-1.87,1.35-3.83,2.05-5.7h.1c.65,1.87,1.26,3.83,2,5.7L544.89,147ZM482.19,159.3h4.3v-26c0-1.35-.09-3.22-.14-3.78h.28c.47,1.49.93,2.94,1.45,4.34l9,25.47h3.55L510,133.83c.51-1.4,1-2.85,1.5-4.34h.27c0,.56-.14,2.43-.14,3.78v26h4.3V126h-7l-8.36,22.29c-.61,1.59-1.17,3.73-1.4,4.39h-.19c-.23-.66-.8-2.8-1.4-4.39L489.39,126h-7.2Zm-47.84-6.36c.7,2.48,3.41,7.06,10.7,7.06,9.48,0,11.4-6.22,11.4-9.35,0-5.74-4.06-7.75-6.12-8.64l-6-2.62c-2.15-.93-4.39-2-4.39-5.23,0-3,1.73-5.37,5.84-5.37,2.38,0,5.18.89,6,4l4.2-1.4c-1.59-4.43-5.46-6.07-10.18-6.07s-10.42,2.62-10.42,9.11c0,3.46,1.82,5.84,4.95,7.29l8,3.73a5.31,5.31,0,0,1,3.5,5.29c0,2.8-2.24,5.79-6.44,5.79a6.63,6.63,0,0,1-6.92-5.14Zm-29.48,0c.7,2.48,3.41,7.06,10.7,7.06,9.48,0,11.4-6.22,11.4-9.35,0-5.74-4.07-7.75-6.12-8.64l-6-2.62c-2.15-.93-4.39-2-4.39-5.23,0-3,1.72-5.37,5.84-5.37,2.38,0,5.18.89,6,4l4.2-1.4c-1.59-4.43-5.46-6.07-10.18-6.07S405.9,128,405.9,134.44c0,3.46,1.82,5.84,5,7.29l8,3.73a5.31,5.31,0,0,1,3.5,5.29c0,2.8-2.24,5.79-6.45,5.79A6.63,6.63,0,0,1,409,151.4ZM392,159.3h4.3V126H392ZM348.15,126h-4.43L352,159.3h5.47L363,135.56c.47-2,.65-3.36.94-5h.32c.28,1.68.47,3.08.94,5l5.6,23.74h5.66L384.69,126h-4.11l-5.7,23.69c-.47,2-.66,3.36-.94,5.09h-.32c-.28-1.73-.47-3.13-.94-5.09L366.94,126h-5.38L356,149.72c-.46,2-.65,3.36-.93,5.09h-.33c-.28-1.73-.47-3.13-.93-5.09Zm-32.61,26.91c.7,2.48,3.41,7.06,10.7,7.06,9.49,0,11.4-6.22,11.4-9.35,0-5.74-4.06-7.75-6.12-8.64l-6-2.62c-2.15-.93-4.39-2-4.39-5.23,0-3,1.73-5.37,5.84-5.37,2.38,0,5.19.89,6,4l4.2-1.4c-1.58-4.43-5.46-6.07-10.18-6.07s-10.42,2.62-10.42,9.11c0,3.46,1.82,5.84,4.95,7.29l8,3.73a5.31,5.31,0,0,1,3.5,5.29c0,2.8-2.24,5.79-6.44,5.79a6.63,6.63,0,0,1-6.92-5.14ZM270.6,147H294v-3.09H270.6ZM221.36,159.3h4.29V135.38c0-1.45-.14-3-.23-4.16h.23a41.88,41.88,0,0,0,2.25,4.58l13.31,23.5H247V126h-4.3v23.64c0,1.45.14,3,.23,4.16h-.23a41.74,41.74,0,0,0-2.24-4.58L227.06,126h-5.7Zm-23.6.7c10.84,0,14.49-9,14.49-17.34,0-13.08-7.39-17.33-14.49-17.33s-14.48,4.44-14.48,17.33c0,8.37,3.64,17.34,14.48,17.34m0-3.46c-8.73,0-9.9-8.88-9.9-13.88,0-6.35,2.33-13.87,9.9-13.87,8.22,0,9.91,7.52,9.91,13.87,0,5-1.17,13.88-9.91,13.88M170,159.3h4.3V126H170Zm-31.39-6.36c.7,2.48,3.41,7.06,10.69,7.06,9.49,0,11.41-6.22,11.41-9.35,0-5.74-4.07-7.75-6.13-8.64l-6-2.62c-2.14-.93-4.39-2-4.39-5.23,0-3,1.73-5.37,5.84-5.37,2.39,0,5.19.89,6,4l4.21-1.4c-1.59-4.43-5.47-6.07-10.19-6.07s-10.42,2.62-10.42,9.11c0,3.46,1.83,5.84,5,7.29l8,3.73a5.3,5.3,0,0,1,3.51,5.29c0,2.8-2.25,5.79-6.45,5.79a6.63,6.63,0,0,1-6.92-5.14Zm-12.9,6.36H130V126h-4.3Zm-12.8-9.3c-.93,3.5-3.22,6.54-8,6.54-8.73,0-9.9-8.88-9.9-13.88,0-6.35,2.34-13.87,9.9-13.87a7.68,7.68,0,0,1,7.62,5.79l4.2-1.07c-.83-2.2-3-8.18-11.82-8.18-7,0-14.48,4.44-14.48,17.33C90.4,151,94.05,160,104.88,160c6.12,0,10.33-2.71,12.29-9Zm-50.5,9.3H82.88v-3.46H66.71V143.78H81.62v-3.45H66.71V129.49h15.7V126h-20ZM35.51,129.49h6.3c1.92,0,6.73.23,6.73,5.79,0,2.57-1.4,5.51-6.26,5.51H35.51Zm-4.3,29.81h4.3V144.25H42.7l6.87,15.05h5.14l-7.94-15.84c1.68-.56,6.07-2.1,6.07-8.5,0-6.12-4.48-8.93-10.19-8.93H31.21ZM4.3,129.49h6.63c3.09,0,7.06,1.21,7.06,6.4,0,4.39-2.85,6.35-7.06,6.35H4.3ZM0,159.3H4.3V145.7h6.63c5,0,11.36-1.63,11.36-10,0-8.79-7.71-9.63-11.73-9.63H0Z"/><path class="cls-2" d="M685.17,89.93V0H610.51c5.21,1.85,9.46,5.53,11.37,12.48a30.91,30.91,0,0,1,1.41,9.77c0,6.42-.78,10.78-2.2,13.87h10.26v-18h17.7v18h18v17.7h-18v18h-17.7v-18h-9.18a37,37,0,0,1,.67,7.48v22a16.71,16.71,0,0,0,1.33,6.58Z"/><path class="cls-1" d="M586.14,89.93V51.16h4c3.34,0,6.37,2.23,6.37,9.12V84.52c0,5.41,2.29,5.41,2.36,5.41H617a16.71,16.71,0,0,1-1.33-6.58v-22c0-10.91-3.11-15.9-9.4-18.31,6.15-2.42,9.85-6.65,9.85-20.74C616.14,3.41,604.52,0,593,0h-27.2V89.93Zm0-76.09h4.14c4.59,0,6.68,2.16,6.68,10.69,0,4.86,0,7.77-1.71,9.82a6,6,0,0,1-5,2.29h-4.07Z"/><path class="cls-1" d="M249.24,89.93V51.16h4c3.34,0,6.37,2.23,6.37,9.12V84.52c0,5.41,2.3,5.41,2.37,5.41h18.15a16.49,16.49,0,0,1-1.33-6.58v-22c0-10.91-3.11-15.9-9.41-18.31,6.15-2.42,9.85-6.65,9.85-20.74C279.23,3.41,267.61,0,256.05,0H228.86V89.93Zm0-76.09h4.14c4.59,0,6.67,2.16,6.67,10.69,0,4.86,0,7.77-1.71,9.82a6,6,0,0,1-5,2.29h-4.07Z"/><polygon class="cls-1" points="559.93 89.93 559.93 72.97 536 72.97 536 51.16 555.12 51.16 555.12 35.16 536 35.16 536 15.62 557.15 15.62 557.15 0 515.18 0 515.18 89.93 559.93 89.93"/><path class="cls-1" d="M476.74,89.93V51.16h4c3.34,0,6.38,2.23,6.38,9.12V84.52c0,5.41,2.29,5.41,2.37,5.41h18.15a16.38,16.38,0,0,1-1.34-6.58v-22c0-10.91-3.11-15.9-9.4-18.31,6.14-2.42,9.85-6.65,9.85-20.74C506.74,3.41,495.12,0,483.55,0H456.36V89.93Zm0-76.09h4.14c4.59,0,6.67,2.16,6.67,10.69,0,4.86,0,7.77-1.7,9.82a6,6,0,0,1-5,2.29h-4.07Z"/><path class="cls-1" d="M347,89.93h28.74c16.9,0,21.8-10.76,21.8-27.39V28.89C397.58,4.9,387.32,0,374.72,0H347Zm20.07-76.09h4.13c6.37,0,7,7,7,13.53v33c0,10.6-1.9,14.18-7.13,14.18h-4Z"/><path class="cls-1" d="M190.62,74.56h4c3.36,0,7.87,0,7.87-12.08,0-11.33-4-11.32-6.76-11.33h-5.07Zm0-37.92h3.27a7.55,7.55,0,0,0,6.2-3.16c.77-1.18,1.54-4.88,1.54-8.9,0-10.75-4.66-10.74-6.76-10.74h-4.25ZM170.05,0h29C207.5,0,219.92,1.15,220,22.21c0,10.39-1.48,18-9.88,20.22,4.86,1.84,8.29,4.12,10.08,8.67,1.21,3.1,1.53,7.29,1.52,12.95,0,10.21-2.06,16.62-5.82,20.21-6.51,6.24-16.11,5.67-20.15,5.67H170.05Z"/><polygon class="cls-1" points="450.63 89.93 450.63 72.97 426.7 72.97 426.7 51.16 445.82 51.16 445.82 35.16 426.7 35.16 426.7 15.62 447.85 15.62 447.85 0 405.87 0 405.87 89.93 450.63 89.93"/><path class="cls-1" d="M337.79,0H317.35V69.58c0,2.94,0,7-4.89,7s-4.81-4.1-4.81-7V0H287.2V64.23c0,8.74.17,14.67,6.74,20.58,5.7,5.12,13.71,6.3,18.52,6.3s13-1.13,18.89-6.3c6.44-5.64,6.44-11.84,6.44-20.58Z"/></g></g></svg>
