<?xml version="1.0" encoding="UTF-8" standalone="no"?>
<svg
   xmlns:dc="http://purl.org/dc/elements/1.1/"
   xmlns:cc="http://creativecommons.org/ns#"
   xmlns:rdf="http://www.w3.org/1999/02/22-rdf-syntax-ns#"
   xmlns:svg="http://www.w3.org/2000/svg"
   xmlns="http://www.w3.org/2000/svg"
   version="1.1"
   id="svg3623"
   viewBox="0 0 744.09448819 1052.3622047"
   height="297mm"
   width="210mm">
  <defs
     id="defs3625" />
  <metadata
     id="metadata3628">
    <rdf:RDF>
      <cc:Work
         rdf:about="">
        <dc:format>image/svg+xml</dc:format>
        <dc:type
           rdf:resource="http://purl.org/dc/dcmitype/StillImage" />
        <dc:title></dc:title>
      </cc:Work>
    </rdf:RDF>
  </metadata>
  <g
     id="layer1">
    <path
       id="path3727"
       style="fill:#00aeef;fill-opacity:1;fill-rule:evenodd;stroke:none"
       d="m 311.90289,507.24189 69.48885,-13.07091 c -7.68252,36.41314 -6.563,71.95023 0,106.93835 -36.76498,-25.87555 -60.57898,-54.22502 -71.44671,-85.07163 -11.12407,9.10599 -21.3747,21.0611 -15.0629,31.99012 21.06272,29.15554 49.25121,54.23229 88.4649,80.54646 12.21106,6.54473 22.91018,6.3698 32.57752,1.59339 45.03806,-24.64611 66.77138,-60.2844 74.22323,-106.98156 -1.0429,-3.4878 -3.37094,-6.24723 -7.64228,-7.94252 -19.38133,40.03314 -42.38394,73.63684 -73.39859,93.06886 -5.21026,-35.2943 -7.27254,-70.5832 0.47545,-105.8775 4.21657,-21.79604 60.99495,-16.92994 84.56759,-16.7968 l 1.47,-19.99697 c -71.1617,4.00884 -134.92119,14.11251 -190.5287,30.92998 z m 92.83083,-69.07294 0.95475,-12.79196 c -93.75391,7.63752 -49.41726,72.05543 26.2533,28.26353 l -10.18472,-9.60448 c -33.70816,24.42797 -59.982,0.76006 -17.02333,-5.86709 z m -5.83593,174.39465 c 3.50062,0 6.31523,2.22032 6.31523,4.94454 0,2.72421 -2.81461,4.93537 -6.31523,4.93537 -3.48905,0 -6.3302,-2.21116 -6.3302,-4.93537 0,-2.72563 2.84115,-4.94454 6.3302,-4.94454" />
  </g>
</svg>
